<svg id="icon_advanced_settings" data-name="icon / advanced settings" xmlns="http://www.w3.org/2000/svg" width="36" height="36" viewBox="0 0 36 36">
  <rect id="frame" width="36" height="36" fill="none"/>
  <path id="cog-box" d="M29.3,19.611a9.342,9.342,0,0,1-.092,1.255l2.732,2.141a.648.648,0,0,1,.148.831L29.5,28.3a.653.653,0,0,1-.794.277L25.5,27.289a9.613,9.613,0,0,1-2.2,1.274l-.461,3.415a.67.67,0,0,1-.646.554H17.027a.67.67,0,0,1-.646-.554l-.461-3.415a9.235,9.235,0,0,1-2.2-1.274l-3.212,1.292a.653.653,0,0,1-.794-.277L7.134,23.838a.648.648,0,0,1,.148-.831l2.732-2.141a8.581,8.581,0,0,1,0-2.51L7.282,16.215a.652.652,0,0,1-.148-.831l2.584-4.467a.641.641,0,0,1,.794-.3l3.212,1.31a8.651,8.651,0,0,1,2.2-1.274l.461-3.433a.672.672,0,0,1,.646-.535H22.2a.672.672,0,0,1,.646.535L23.3,10.66a8.981,8.981,0,0,1,2.2,1.274l3.212-1.31a.641.641,0,0,1,.794.3l2.584,4.467a.652.652,0,0,1-.148.831l-2.732,2.141a9.342,9.342,0,0,1,.092,1.255M32.531,3H6.691A3.679,3.679,0,0,0,3,6.691v25.84a3.691,3.691,0,0,0,3.691,3.691h25.84a3.691,3.691,0,0,0,3.691-3.691V6.691A3.69,3.69,0,0,0,32.531,3M19.611,15.92A3.691,3.691,0,1,0,23.3,19.611,3.679,3.679,0,0,0,19.611,15.92Z" transform="translate(-1.611 -1.611)" fill="#121212"/>
</svg>
