<svg id="icon_backspace" data-name="icon / backspace" xmlns="http://www.w3.org/2000/svg" width="36" height="36" viewBox="0 0 36 36">
  <rect id="frame" width="36" height="36" fill="none"/>
  <path id="backspace-outline" d="M28.5,21.885,26.385,24,21,18.615,15.615,24,13.5,21.885,18.885,16.5,13.5,11.115,15.615,9,21,14.385,26.385,9,28.5,11.115,23.115,16.5,28.5,21.885M33,3a3,3,0,0,1,3,3V27a3,3,0,0,1-3,3H10.5a2.837,2.837,0,0,1-2.385-1.335L0,16.5,8.115,4.32A2.823,2.823,0,0,1,10.5,3H33m0,3H10.5L3.42,16.5,10.5,27H33Z" transform="translate(0 1.5)" fill="#121212"/>
</svg>
