<svg id="icon_canvas" data-name="icon / canvas" xmlns="http://www.w3.org/2000/svg" width="36" height="36" viewBox="0 0 36 36">
  <rect id="frame" width="36" height="35.993" transform="translate(0 0.007)" fill="none"/>
  <path id="hexagon-slice-2" d="M29.995,13.914,19.2,20V32.018l10.8-6.065V13.914m5.4-2.016a1.784,1.784,0,0,0-.954-1.584L20.223,2.324a1.786,1.786,0,0,0-2.052,0L3.954,10.314A1.784,1.784,0,0,0,3,11.9V28.1a1.784,1.784,0,0,0,.954,1.584l14.217,7.99a1.786,1.786,0,0,0,2.052,0l14.217-7.99a1.784,1.784,0,0,0,.954-1.584V11.9M19.2,34.124,6.6,27.033V12.96L19.2,5.869l12.6,7.091V27.033Z" transform="translate(-1.05 -2)"/>
</svg>
