<svg id="icon_capture" data-name="icon / capture" xmlns="http://www.w3.org/2000/svg" width="36" height="36" viewBox="0 0 36 36">
  <rect id="frame" width="36" height="36" fill="none"/>
  <path id="icons8-aperture" d="M19,2A17,17,0,1,0,36,19,17.026,17.026,0,0,0,19,2Zm0,3.4a13.648,13.648,0,0,1,3.4.445v6.939L15.484,5.868A13.627,13.627,0,0,1,19,5.4Zm6.8,1.823A13.587,13.587,0,0,1,30.711,12.1L25.8,17.008Zm-13.71.06L17.008,12.2H7.223A13.627,13.627,0,0,1,12.09,7.283Zm20.038,8.2a13.269,13.269,0,0,1,.027,6.913H25.216ZM5.845,15.6h6.939L5.871,22.513A13.269,13.269,0,0,1,5.845,15.6ZM19,15.6a3.381,3.381,0,0,1,2.334.926l.07.07.007-.007a3.418,3.418,0,0,1,.063,4.745l-.07.07.007.007a3.418,3.418,0,0,1-4.745.063l-.07-.07-.007.007a3.418,3.418,0,0,1-.063-4.745l.07-.07-.007-.007A3.387,3.387,0,0,1,19,15.6Zm-6.8,5.392v9.785A13.587,13.587,0,0,1,7.289,25.9Zm3.4,4.223,6.913,6.913a13.269,13.269,0,0,1-6.913.027Zm5.392.584h9.785A13.587,13.587,0,0,1,25.9,30.711Z" transform="translate(-1 -0.649)" fill="#121212"/>
</svg>
