<svg id="icon_configuration" data-name="icon / configuration" xmlns="http://www.w3.org/2000/svg" width="36" height="36" viewBox="0 0 36 36">
  <rect id="frame" width="36" height="36" fill="none"/>
  <path id="icons8-webcam" d="M18.171,2A14.166,14.166,0,0,0,16.4,30.221v3.664H9.314v3.543H27.028V33.885H19.942V30.221A14.166,14.166,0,0,0,18.171,2Zm0,3.543A10.628,10.628,0,1,1,7.543,16.171,10.6,10.6,0,0,1,18.171,5.543Zm0,3.543a7.086,7.086,0,1,0,7.086,7.086A7.113,7.113,0,0,0,18.171,9.086Zm0,3.543a3.446,3.446,0,0,1,3.543,3.543,3.543,3.543,0,1,1-3.543-3.543Z" transform="translate(-4 -1.714)" fill="#121212"/>
  <path id="account-settings" d="M9.314,36.142h4.739v4.681H9.314V36.142m9.541,0h4.739v4.681H18.855V36.142m9.541,0h4.739v4.681H28.4Z" transform="translate(71.823 -3.69) rotate(90)" fill="#121212"/>
</svg>
