<svg id="icon_connected_signal_strong" data-name="icon / connected / signal strong" xmlns="http://www.w3.org/2000/svg" width="36.028" height="36" viewBox="0 0 36.028 36">
  <rect id="frame" width="34.649" height="36" fill="none"/>
  <path id="Subtraction_12" data-name="Subtraction 12" d="M17.327,28.62h0c-2.086-2.7-4.045-5.233-6.344-8.2C7.524,15.948,3.948,11.33,0,6.188a27.84,27.84,0,0,1,8.167-4.6,27.241,27.241,0,0,1,18.346,0,27.949,27.949,0,0,1,8.188,4.6L32.865,8.557,31.188,10.72l-.009-.007-6.712,8.2-4.206-3.879-5.455,6.5,4.637,4.357-.434.563c-.622.8-1.2,1.55-1.682,2.17Z" transform="translate(0 4.001)" fill="#121212"/>
  <path id="icons8-wi-fi-connected" d="M15-.038,7,8.254,2.519,3.675-.015,6.3l6.879,7.125L17.4,2.509Z" transform="matrix(0.998, -0.07, 0.07, 0.998, 17.73, 19.136)" fill="#121212"/>
</svg>
