<svg id="icon_dark_mode" data-name="icon / dark mode" xmlns="http://www.w3.org/2000/svg" width="36" height="36" viewBox="0 0 36 36">
  <rect id="frame" width="36" height="36" fill="none"/>
  <path id="icons8-moon-symbol" d="M22.681,2H22.45l-.462.014-.231.014-.224.007-.231.021-.224.014-.224.028-.231.014-.224.028-.224.035-.217.035-.224.028-.224.042-.217.042-.224.042-.217.042-.217.056-.434.1-.42.127-.217.056-.42.127-.2.07-.217.077-.2.077-.2.07-.406.169-.2.077-.2.091-.2.084-.2.1-.2.084-.392.2-.189.1-.2.105-.189.105-.189.112-.182.105-.189.112-.182.113-.189.12-.175.112-.182.127-.175.12-.182.12-.168.127-.182.134-.168.134-.168.127-.168.141-.336.267-.161.141-.322.3-.161.141-.154.155-.154.141-.308.309-.14.155-.154.155-.14.162-.294.323-.14.162-.266.337-.14.169-.126.169-.133.169-.133.183-.126.169-.119.183-.119.176-.126.183L7.58,10.3l-.119.19-.112.183-.112.19-.105.183-.112.19-.105.19-.105.2-.2.38-.1.2-.084.2-.1.2-.084.2-.091.2-.077.2-.168.408-.07.2-.154.422-.07.2-.126.422-.056.218L5.31,15.5l-.1.436-.056.218-.042.218-.042.225-.042.218-.042.225-.028.225-.035.218-.035.225-.028.225-.014.232-.028.225-.014.225-.021.232-.007.225-.014.232-.014.464v.464l.014.464.014.232.007.225.021.232.014.225.028.225.014.232.028.225.035.225.035.218.028.225.042.225.042.218.042.225.042.218.056.218.1.436.126.422.056.218.126.422.07.2.077.218.077.2.07.2.168.408.077.2.091.2.084.2.1.2.084.2.2.394.1.19.105.2.105.19.112.19.105.183.112.19.112.183.119.19.112.176.126.183.238.352.126.183.133.176.133.169.126.169.14.169.266.337.14.162.294.323.14.162.154.155.14.155.308.309.154.141.154.155.161.148.161.141.161.148.161.141.168.134.168.141.168.127.336.267.182.127.168.134.182.12.175.127.182.12.175.112.189.12.182.113.189.113.182.105.189.112.189.105.2.1.189.105.392.2.2.084.2.091.2.1.609.253.2.07.406.155.217.07.2.077.42.127.217.063.21.056.21.063.217.049.217.056.217.042.217.049.224.042.217.042.224.035.224.042.217.028.224.035.224.028.231.021.224.021.224.014.231.021.224.007.231.014L22.45,38h.5l.266-.007.273-.014.266-.007.266-.021.273-.021.259-.028.266-.028.266-.035.259-.035.266-.042.252-.042.259-.056.252-.049.259-.056.252-.056.5-.127.252-.077.245-.07.252-.077.245-.077.238-.084.49-.183.231-.1.245-.091.462-.211.238-.1.231-.112.224-.112-.273-.141-.266-.155-.273-.148-.259-.155-.266-.155-.259-.169-.5-.337-.252-.176-.49-.366-.476-.38-.231-.2-.231-.2-.224-.2-.448-.422-.42-.436-.217-.218-.2-.225-.588-.7-.189-.246-.182-.239-.189-.246-.168-.253-.175-.253-.336-.506-.161-.267-.161-.26-.147-.267-.147-.274-.14-.274-.14-.267-.266-.562-.119-.281-.238-.577-.056-.148L22,26.244l-.056-.148-.049-.148-.056-.148-.1-.3-.042-.148-.049-.155-.042-.148-.049-.148-.035-.155-.049-.148-.035-.155L21.4,24.3l-.035-.162-.035-.148-.028-.155-.035-.155-.035-.162-.028-.148-.035-.162-.021-.155-.028-.162-.028-.155-.014-.155-.028-.162-.021-.155-.021-.162-.014-.162-.021-.162-.014-.155-.014-.169-.007-.162-.014-.155-.007-.162-.007-.169-.021-.485V19.67l.021-.485.007-.169.007-.162.014-.155.007-.162.014-.169.014-.155.021-.162.014-.162.021-.162.021-.155.028-.162.014-.155.028-.155.028-.162.021-.155.035-.162.028-.148.035-.162.035-.155.028-.155.07-.309.042-.148.035-.148.049-.155.035-.155.049-.148.042-.148.049-.155.042-.148.1-.3.056-.148.049-.148L22,13.756l.049-.141.056-.155.238-.562.119-.288.133-.281.133-.274.14-.281.14-.267.147-.267.147-.274.161-.26.161-.267.336-.506.175-.253.168-.253.189-.246.182-.246.189-.239.392-.464.2-.225.2-.232.217-.218.21-.225.21-.211.448-.422.224-.2.231-.2.231-.2.476-.38.49-.366.252-.176.5-.337.259-.169.266-.155.259-.155.273-.155.266-.141.273-.141-.224-.112L30.295,3.7l-.238-.113-.462-.2-.245-.1-.231-.1-.49-.183-.238-.084-.245-.077-.252-.077-.245-.07-.5-.141-.5-.127-.259-.049-.252-.049-.259-.056-.252-.042L25.35,2.2l-.259-.035-.266-.035L24.558,2.1,24.3,2.07l-.273-.021-.266-.021-.266-.014-.273-.007L22.954,2Zm0,3.6h.105l-.245.274-.231.274-.238.288-.448.577-.21.3-.217.3-.2.3-.21.309-.2.309-.189.309-.189.323-.182.323-.175.316-.336.661-.161.33-.308.675-.14.352-.14.337-.063.183-.07.169-.063.183-.063.169-.056.183-.063.176-.056.176-.112.366-.056.176-.049.176-.056.183-.049.183-.042.183-.049.183-.042.19-.042.183-.042.19-.042.183-.035.183-.07.38-.035.183-.056.38-.028.2-.028.19-.028.183-.028.2-.014.19-.021.2-.021.19-.014.19-.014.2-.014.19-.014.2-.007.19-.021.591v.787l.021.591.007.19.014.2.014.19.014.2.014.19.021.19.021.2.014.19.028.2.028.183.028.19.028.2.028.19.028.183.07.38.035.183.035.19.042.19.126.548.049.19.042.176.049.19.056.176.049.183.056.176.112.366.056.176.063.183.056.176.063.169.063.176.07.183.063.176.14.338.14.345.308.675.161.337.336.661.175.316.182.323.189.323.189.309.2.309.21.309.2.3.217.3.21.3.448.577.238.281.231.281.245.274h-.294l-.182-.007h-.189l-.175-.014-.189-.007-.364-.028-.175-.021-.189-.014-.175-.021-.182-.028-.35-.056-.182-.028-.175-.028-.175-.035-.175-.042-.175-.035-.168-.049-.175-.035-.168-.049-.168-.042-.168-.049-.175-.056-.161-.056-.5-.169-.161-.063-.168-.063-.154-.07-.161-.063-.168-.07-.154-.063-.154-.077-.161-.07-.154-.077-.161-.084-.147-.084-.161-.077-.147-.084-.154-.084L15.4,32.4l-.147-.084-.147-.091-.147-.1-.147-.091-.14-.091-.14-.105-.147-.1-.133-.1-.14-.105-.14-.1-.14-.105-.532-.45-.252-.225-.5-.478-.119-.12-.119-.134-.119-.12-.119-.134-.112-.12-.56-.668-.1-.141-.21-.281-.1-.134-.1-.148-.2-.281-.1-.148-.182-.3-.084-.148-.091-.148-.084-.155-.084-.148L9.989,26.7l-.084-.148-.084-.162-.07-.155-.077-.155L9.6,25.92l-.063-.155-.07-.169L9.4,25.435l-.07-.155-.063-.169L9.2,24.95l-.168-.506-.056-.162-.056-.176-.042-.169-.1-.338-.042-.176L8.7,23.255,8.63,22.9l-.042-.176-.028-.176-.028-.183-.056-.352-.028-.183-.014-.176-.028-.183-.042-.548-.014-.19v-.176l-.007-.19-.007-.183v-.38l.007-.183.007-.19v-.176l.014-.19.042-.548.028-.183.014-.176.028-.183.056-.352.028-.183.028-.176L8.63,17.1l.07-.352.042-.169.042-.176.1-.338.042-.169.056-.176.056-.162L9.2,15.05l.126-.323.07-.169.063-.155.07-.169L9.6,14.08l.077-.162.077-.155.07-.162.168-.309.077-.155.168-.3.091-.155.084-.148.182-.3.1-.148.2-.281.1-.148.1-.134.21-.281.1-.141.448-.534.224-.253.476-.506.5-.478.252-.225.532-.45.14-.1.28-.211.133-.1.147-.1.28-.2.147-.1.294-.183L15.4,7.6l.147-.091.154-.084.147-.084.161-.077.147-.084.161-.084.154-.07.161-.077.154-.077.154-.063.168-.07.161-.063.154-.07.168-.063.161-.063.5-.169.161-.056.175-.056.168-.042.336-.1.175-.042.168-.042.35-.07.175-.042.175-.028.182-.028.35-.056.182-.028.175-.014.189-.028.175-.014.364-.028.189-.014h.175l.189-.007.182-.007Z" transform="translate(0.25 -2)" fill="#121212" fill-rule="evenodd"/>
</svg>
