<svg id="icon_debug" data-name="icon / debug" xmlns="http://www.w3.org/2000/svg" width="36" height="36" viewBox="0 0 36 36">
  <rect id="frame" width="36" height="36" fill="none"/>
  <path id="icons8-bug" d="M15.133,2.3,12.55,4.828,15.066,7.4a5.371,5.371,0,0,0-1.225,3.4c0,.1.023.155.028.244A5.43,5.43,0,0,0,11.5,12.394a17.985,17.985,0,0,0-1.722,2.012H3V18.02H7.726a14.664,14.664,0,0,0-.981,3.614H3v3.614H6.7a18.621,18.621,0,0,0,.635,3.614H3v3.614H8.922a12.2,12.2,0,0,0,.8,1.129A11.89,11.89,0,0,0,19.263,37.9,11.89,11.89,0,0,0,28.806,33.6a12.2,12.2,0,0,0,.8-1.129h5.922V28.862H31.191a18.485,18.485,0,0,0,.639-3.614h3.7V21.634H31.767a15.022,15.022,0,0,0-1-3.614h4.754V14.406h-6.79a17.262,17.262,0,0,0-1.708-2.012,5.43,5.43,0,0,0-2.372-1.359c.005-.088.028-.146.028-.244a5.371,5.371,0,0,0-1.225-3.4l2.516-2.569L23.392,2.3,20.286,5.474a5.169,5.169,0,0,0-2.047,0Zm.286,12.105h7.687a1.934,1.934,0,0,1,1.369.543v0A13.1,13.1,0,0,1,28.3,23.441a12.612,12.612,0,0,1-2.315,7.905,7.5,7.5,0,0,1-4.913,2.792V18.02H17.456V34.138a7.5,7.5,0,0,1-4.913-2.792,12.612,12.612,0,0,1-2.315-7.905,12.338,12.338,0,0,1,3.822-8.488v0A1.934,1.934,0,0,1,15.419,14.406Z" transform="translate(-1.263 -2.249)" fill="#121212"/>
</svg>
