<svg id="icon_drive" data-name="icon / drive" xmlns="http://www.w3.org/2000/svg" width="36" height="36" viewBox="0 0 36 36">
  <rect id="frame" width="36" height="36" fill="none"/>
  <path id="Path_453" data-name="Path 453" d="M16122.755,11206h-.072l-.172,0-.078,0-.176-.006-.064,0-.2-.011-.037,0a17,17,0,0,1-12.555-6.783V11206h-3.4v-17a17.024,17.024,0,0,1,17-17l.24,0h.074l.174,0,.076,0,.174.007.068,0,.209.011.025,0a17,17,0,0,1,12.559,6.784V11172h3.4v17a17.025,17.025,0,0,1-17,17C16122.917,11206,16122.837,11206,16122.755,11206Zm.244-3.4a13.6,13.6,0,1,0-13.6-13.6A13.575,13.575,0,0,0,16123,11202.6Zm-3.4-5.1a3.4,3.4,0,1,1,3.4,3.4A3.4,3.4,0,0,1,16119.6,11197.5Zm8.5-8.5a3.4,3.4,0,1,1,3.4,3.4A3.4,3.4,0,0,1,16128.1,11189Zm-17,0a3.4,3.4,0,1,1,3.4,3.4A3.4,3.4,0,0,1,16111.1,11189Zm8.5-8.5a3.4,3.4,0,1,1,3.4,3.4A3.4,3.4,0,0,1,16119.6,11180.5Z" transform="translate(-16104.999 -11171.198)"/>
</svg>
