<svg id="icon_ethernet" data-name="icon / ethernet" xmlns="http://www.w3.org/2000/svg" width="36" height="36" viewBox="0 0 36 36">
  <rect id="frame" width="36" height="36" fill="none"/>
  <path id="ethernet" d="M9.75,21.6h3.1v4.65h3.1V21.6h3.1v4.65h3.1V21.6h3.1v4.65h3.1V12.3h-6.2V7.65h-9.3V12.3H6.65v13.95h3.1V21.6M5.689,3H29.326A3.675,3.675,0,0,1,33,6.689V28.776a3.673,3.673,0,0,1-3.673,3.673H5.689A3.675,3.675,0,0,1,2,28.776V6.689A3.678,3.678,0,0,1,5.689,3Z" transform="translate(0.5 0.775)" fill="#121212"/>
</svg>
