<svg id="icon_gradient" data-name="icon / gradient" xmlns="http://www.w3.org/2000/svg" width="36" height="36" viewBox="0 0 36 36">
  <rect id="frame" width="36" height="36" fill="none"/>
  <path id="gradient" d="M16.8,13.353h3.451V16.8H16.8V13.353M13.353,16.8H16.8v3.451H13.353V16.8m6.9,0h3.451v3.451H20.255V16.8m3.451-3.451h3.451V16.8H23.706V13.353m-13.8,0h3.451V16.8H9.9V13.353M30.608,3H6.451A3.451,3.451,0,0,0,3,6.451V30.608a3.451,3.451,0,0,0,3.451,3.451H30.608a3.451,3.451,0,0,0,3.451-3.451V6.451A3.451,3.451,0,0,0,30.608,3M13.353,28.882H9.9V25.431h3.451v3.451m6.9,0H16.8V25.431h3.451v3.451m6.9,0H23.706V25.431h3.451v3.451M30.608,16.8H27.157v3.451h3.451v3.451H27.157V20.255H23.706v3.451H20.255V20.255H16.8v3.451H13.353V20.255H9.9v3.451H6.451V20.255H9.9V16.8H6.451V6.451H30.608Z" transform="translate(-0.529 -0.529)" fill="#121212"/>
</svg>
