<svg id="icon_more" data-name="icon / more" xmlns="http://www.w3.org/2000/svg" width="36" height="36" viewBox="0 0 36 36">
  <path id="Subtraction_9" data-name="Subtraction 9" d="M13186,10924a17.951,17.951,0,1,1,7.006-1.414A17.879,17.879,0,0,1,13186,10924Zm9.507-21.655a3.169,3.169,0,1,0,3.168,3.168A3.171,3.171,0,0,0,13195.507,10902.344Zm-9.507,0a3.169,3.169,0,1,0,3.168,3.168A3.173,3.173,0,0,0,13186,10902.344Zm-9.511,0a3.169,3.169,0,1,0,3.172,3.168A3.171,3.171,0,0,0,13176.489,10902.344Z" transform="translate(-13168 -10888)"/>
  <rect id="frame" width="36" height="36" fill="none"/>
</svg>
