<svg id="icon_not_cloud" data-name="icon / not cloud" xmlns="http://www.w3.org/2000/svg" width="36" height="36" viewBox="0 0 36 36">
  <rect id="frame" width="36" height="36" fill="none"/>
  <path id="cloud-off-outline" d="M11.552,12.967,23.507,24.922H8.967a5.978,5.978,0,1,1,0-11.955M4.483,5.9l4.11,4.08a8.971,8.971,0,0,0,.374,17.933H26.5L29.485,30.9l1.9-1.9-25-25m22.536,9.011A11.2,11.2,0,0,0,17.933,4a10.923,10.923,0,0,0-5.978,1.748L14.122,7.93a8.212,8.212,0,0,1,12.03,7.278v.747h2.242a4.472,4.472,0,0,1,2.152,8.4l2.167,2.167a7.443,7.443,0,0,0-3.8-13.51Z" transform="translate(0 1.769)" fill="#121212"/>
</svg>
