<svg id="icon_offline" data-name="icon / offline" xmlns="http://www.w3.org/2000/svg" width="36" height="36" viewBox="0 0 36 36">
  <rect id="frame" width="36" height="36" transform="translate(0 0)" fill="none"/>
  <path id="Subtraction_11" data-name="Subtraction 11" d="M13366.671,10864.171a17.317,17.317,0,0,1-11.133-30.582l9.079,9.078a1.742,1.742,0,0,1-1.409.722h-3.463v3.463h9.058l3.064,3.065v3.864h1.733a3.459,3.459,0,0,1,3.289,2.408c.181-.2.376-.424.578-.674l2.471,2.471A17.292,17.292,0,0,1,13366.671,10864.171Zm-13.489-20.417h0a13.818,13.818,0,0,0,11.76,16.832v-3.343a3.469,3.469,0,0,1-3.467-3.463v-1.733l-8.293-8.293Zm28.5,11.739h0l-2.565-2.566a13.824,13.824,0,0,0-1.018-13.9,13.8,13.8,0,0,0-6.233-5v.709a3.467,3.467,0,0,1-3.463,3.463h-4.019l-6.351-6.352a17.322,17.322,0,0,1,23.65,23.651Z" transform="translate(-13348.672 -10828.854)" fill="#121212"/>
  <rect id="Rectangle_291" data-name="Rectangle 291" width="47" height="3" transform="translate(2.121) rotate(45)" fill="#111"/>
</svg>
