<svg xmlns="http://www.w3.org/2000/svg" width="36" height="36" viewBox="0 0 36 36">
  <g id="icon_palette_3" data-name="icon / palette 3" transform="translate(0)">
    <rect id="frame" width="36" height="36" fill="none"/>
    <g id="Group_402" data-name="Group 402" transform="translate(20489.047 16774)">
      <g id="Rectangle_189" data-name="Rectangle 189" transform="translate(-20480.047 -16769)" fill="none" stroke="#000" stroke-width="3">
        <rect width="27" height="27.572" rx="6" stroke="none"/>
        <rect x="1.5" y="1.5" width="24" height="24.572" rx="4.5" fill="none"/>
      </g>
      <g id="Path_433" data-name="Path 433" transform="translate(-20489 -16768.994)" fill="#fff">
        <path d="M 3.700558185577393 26.0677604675293 C 3.009238243103027 26.0677604675293 2.44868803024292 25.82561111450195 2.034488201141357 25.34802055358887 C 1.597442746162415 24.84408950805664 1.382660150527954 24.12851905822754 1.472932577133179 23.47864151000977 L 4.547168254852295 3.675090789794922 L 4.548088073730469 3.669120788574219 L 4.548968315124512 3.663140773773193 C 4.731028079986572 2.424600839614868 5.94544792175293 1.499160885810852 6.909647941589355 1.499160885810852 L 26.13328742980957 1.499160885810852 L 26.15953826904297 1.499160885810852 L 26.18576812744141 1.498240828514099 C 26.26705741882324 1.495400905609131 26.34763717651367 1.493950843811035 26.42526817321777 1.493950843811035 C 27.04068756103516 1.493950843811035 27.85301780700684 1.585010886192322 28.22801780700684 2.01879096031189 C 28.44914436340332 2.274583578109741 28.67460823059082 2.839455842971802 28.49540519714355 4.078360557556152 L 25.42160797119141 23.01819038391113 L 25.42008781433105 23.02761077880859 L 25.41867828369141 23.03703117370605 C 25.10599899291992 25.13172149658203 24.08062744140625 26.06584167480469 22.09399795532227 26.06584167480469 L 22.06679725646973 26.06578063964844 L 22.06353759765625 26.06577110290527 L 22.06027793884277 26.06577110290527 L 3.833868026733398 26.06577110290527 L 3.811568021774292 26.06577110290527 L 3.789278030395508 26.06643104553223 C 3.759498119354248 26.06732177734375 3.729868173599243 26.0677604675293 3.700558185577393 26.0677604675293 Z" stroke="none"/>
        <path d="M 26.42526817321777 2.993951797485352 C 26.36513900756836 2.993951797485352 26.30219841003418 2.995090484619141 26.23820877075195 2.997320175170898 L 26.18576812744141 2.999160766601562 L 26.13328742980957 2.999160766601562 L 6.910598754882812 2.999151229858398 C 6.686538696289062 3.005840301513672 6.106027603149414 3.384611129760742 6.033027648925781 3.881280899047852 L 6.031269073486328 3.893239974975586 L 6.029407501220703 3.905191421508789 L 2.957660675048828 23.69271278381348 C 2.934268951416016 23.88149261474609 2.998079299926758 24.16967964172363 3.167678833007812 24.36523056030273 C 3.254528045654297 24.46538162231445 3.385768890380859 24.5677604675293 3.70054817199707 24.5677604675293 C 3.71514892578125 24.5677604675293 3.729898452758789 24.56753158569336 3.74473762512207 24.56709098815918 L 3.789287567138672 24.56577110290527 L 3.833858489990234 24.56577110290527 L 22.06027793884277 24.56577110290527 L 22.06692886352539 24.56577110290527 L 22.07358741760254 24.5658016204834 L 22.09399795532227 24.56584167480469 C 23.08560752868652 24.56584167480469 23.34952926635742 24.26742172241211 23.43625831604004 24.16935157775879 C 23.6664981842041 23.90902137756348 23.84365844726562 23.42824172973633 23.93511772155762 22.81558036804199 L 23.93792724609375 22.79672050476074 L 23.94097900390625 22.77790069580078 L 27.01266860961914 3.851049423217773 C 27.07056999206543 3.445178985595703 27.06652450561523 3.192483901977539 27.05188369750977 3.048965454101562 C 26.93096542358398 3.022281646728516 26.73066711425781 2.993951797485352 26.42528915405273 2.993951797485352 L 26.42526817321777 2.993951797485352 M 26.42526626586914 -0.006046295166015625 C 30.21799087524414 -0.00606536865234375 30.20805168151855 2.732284545898438 29.97801780700684 4.306440353393555 L 26.9022388458252 23.25849151611328 C 26.60583114624023 25.24416732788086 25.55140686035156 27.56584358215332 22.09400177001953 27.56584358215332 C 22.0827808380127 27.56584358215332 22.07154846191406 27.56582069396973 22.06027793884277 27.56577110290527 L 3.833858489990234 27.56577110290527 C 3.78911018371582 27.56710243225098 3.744592666625977 27.56776237487793 3.700551986694336 27.56776237487793 C 1.072227478027344 27.56776237487793 -0.2915191650390625 25.22273826599121 -0.01086235046386719 23.25849151611328 L 3.064918518066406 3.444990158081055 C 3.354778289794922 1.473060607910156 5.2109375 -0.0008392333984375 6.909648895263672 -0.0008392333984375 L 26.13328742980957 -0.0008392333984375 C 26.2330207824707 -0.004329681396484375 26.33035469055176 -0.006046295166015625 26.42526626586914 -0.006046295166015625 Z" stroke="none"/>
      </g>
      <path id="Path_434" data-name="Path 434" d="M-3.581-2.047H7.091L5.841,5.218H-5Z" transform="translate(-20473.414 -16752.395)" fill="#121212"/>
    </g>
  </g>
</svg>
