<svg id="icon_quick_unload" data-name="icon / quick unload" xmlns="http://www.w3.org/2000/svg" width="36" height="36" viewBox="0 0 36 36">
  <path id="frame" d="M0,0H36V36H0Z" fill="none"/>
  <path id="Path_500" data-name="Path 500" d="M13915.782,11193.589h-3.831c-.007-.135-.01-.273-.01-.423a8.626,8.626,0,0,0-8.661-8.657h-6.911l5.929,5.946-2.715,2.711-10.583-10.582,10.583-10.583,2.732,2.711-5.946,5.946h6.911a12.5,12.5,0,0,1,12.508,12.508c0,.145,0,.287-.006.422Z" transform="translate(-13889 -11165.088)" fill="#121212"/>
  <path id="Path_503" data-name="Path 503" d="M13922.781,11197.588h-3.829c-.008-.163-.011-.3-.011-.422a8.609,8.609,0,0,0-2.526-6.133c-.308-.308-2.418-4.635-3.765-6.154a12.52,12.52,0,0,1,10.139,12.287c0,.136,0,.271-.008.412v.009Z" transform="translate(-13887 -11169.087)" fill="#121212"/>
</svg>
