<svg id="icon_random" data-name="icon / random" xmlns="http://www.w3.org/2000/svg" width="36" height="36" viewBox="0 0 36 36">
  <rect id="frame" width="36" height="36" fill="none"/>
  <path id="palette-outline" d="M20,38A18,18,0,1,1,20,2c9.9,0,18,7.2,18,16.2A10.8,10.8,0,0,1,27.2,29H23.96a.85.85,0,0,0-.9.9c0,.18.18.36.18.54a4.888,4.888,0,0,1,1.08,3.06A4.2,4.2,0,0,1,20,38M20,5.6a14.4,14.4,0,0,0,0,28.8.85.85,0,0,0,.9-.9c0-.36-.18-.54-.18-.72a4.467,4.467,0,0,1,3.42-7.38H27.2a7.2,7.2,0,0,0,7.2-7.2c0-7.02-6.48-12.6-14.4-12.6M10.1,16.4a2.7,2.7,0,1,1,0,5.4,2.7,2.7,0,1,1,0-5.4m5.4-7.2a2.768,2.768,0,0,1,2.7,2.7,2.7,2.7,0,1,1-5.4,0,2.768,2.768,0,0,1,2.7-2.7m9,0a2.768,2.768,0,0,1,2.7,2.7,2.7,2.7,0,1,1-5.4,0,2.768,2.768,0,0,1,2.7-2.7m5.4,7.2a2.7,2.7,0,1,1-2.7,2.7A2.768,2.768,0,0,1,29.9,16.4Z" transform="translate(-2 -2)" fill="#121212"/>
</svg>
