<svg id="icon_settings" data-name="icon / settings" xmlns="http://www.w3.org/2000/svg" width="36" height="36" viewBox="0 0 36 36">
  <rect id="frame" width="36" height="36" fill="none"/>
  <path id="icons8-settings" d="M14.15,2l-.784,4.033A12.708,12.708,0,0,0,9.779,8.1L5.905,6.76,2.172,13.222l3.1,2.7a12.8,12.8,0,0,0-.181,2.063,13,13,0,0,0,.181,2.063v0l-3.1,2.7L5.905,29.2l3.871-1.333a12.709,12.709,0,0,0,3.59,2.06l.784,4.033H21.61l.784-4.033a12.692,12.692,0,0,0,3.587-2.063L29.854,29.2l3.73-6.459-3.1-2.7a11.83,11.83,0,0,0,0-4.124v0l3.1-2.7L29.854,6.76,25.984,8.093a12.709,12.709,0,0,0-3.59-2.06L21.61,2Zm2.635,3.2h2.191l.621,3.2,1.667.631a9.5,9.5,0,0,1,2.691,1.542l1.38,1.13,3.072-1.055,1.1,1.895-2.454,2.135.281,1.757v0a8.638,8.638,0,0,1,0,3.1l-.284,1.757L29.5,23.427l-1.1,1.9-3.069-1.058L23.951,25.4a9.478,9.478,0,0,1-2.688,1.542h0l-1.667.631-.621,3.2H16.784l-.621-3.2L14.5,26.942A9.5,9.5,0,0,1,11.805,25.4l-1.38-1.13L7.354,25.325l-1.1-1.895,2.457-2.138L8.431,19.54v0a9.843,9.843,0,0,1-.14-1.555,9.61,9.61,0,0,1,.14-1.551l.284-1.757L6.258,12.539l1.1-1.9L10.425,11.7l1.38-1.133A9.5,9.5,0,0,1,14.5,9.024l1.667-.631Zm1.1,6.393a6.393,6.393,0,1,0,6.393,6.393A6.419,6.419,0,0,0,17.88,11.59Zm0,3.2a3.2,3.2,0,1,1-3.2,3.2A3.183,3.183,0,0,1,17.88,14.786Z" transform="translate(-0.052 0.017)" />
</svg>
