<svg id="icon_signal_medium" data-name="icon / signal medium" xmlns="http://www.w3.org/2000/svg" width="36" height="36" viewBox="0 0 36 36">
  <rect id="frame" width="35.95" height="36" transform="translate(0.05)" fill="none"/>
  <path id="wifi-strength-2_1_" data-name="wifi-strength-2 (1)" d="M18.357,3A29.232,29.232,0,0,0,.38,9.188C6.615,17.016,12,23.684,18.357,31.621,24.669,23.761,31.1,15.748,36.38,9.188A29.364,29.364,0,0,0,18.357,3m0,3.094a26.028,26.028,0,0,1,13.475,3.79l-4.966,6.157a17.469,17.469,0,0,0-17.018,0l-5-6.173A26.2,26.2,0,0,1,18.357,6.094Z" transform="translate(-0.38 1)" fill="#121212"/>
</svg>
