<svg id="icon_signal_weak" data-name="icon / signal weak" xmlns="http://www.w3.org/2000/svg" width="36" height="36" viewBox="0 0 36 36">
  <rect id="frame" width="35.95" height="36" fill="none"/>
  <path id="wifi-strength-1" d="M18.357,3A29.232,29.232,0,0,0,.38,9.188C6.615,17.016,12,23.684,18.357,31.621,24.669,23.761,31.1,15.748,36.38,9.188A29.364,29.364,0,0,0,18.357,3m0,3.094a26.028,26.028,0,0,1,13.475,3.79l-7.89,9.839a13.045,13.045,0,0,0-5.585-1.253,13.261,13.261,0,0,0-5.585,1.238L4.851,9.869A26.2,26.2,0,0,1,18.357,6.094Z" transform="translate(-0.38 1)"/>
</svg>
