<svg id="icon_single_color" data-name="icon / single color" xmlns="http://www.w3.org/2000/svg" width="36" height="36" viewBox="0 0 36 36">
  <rect id="frame" width="36" height="36" fill="none"/>
  <path id="format-color-fill" d="M34.307,22.5s-3.913,4.246-3.913,6.848a3.913,3.913,0,1,0,7.826,0c0-2.6-3.913-6.848-3.913-6.848M7.326,19.565,16.7,10.193l9.372,9.372m3.463-2.074L12.041,0,9.283,2.759l4.656,4.656L3.863,17.491a2.917,2.917,0,0,0,0,4.148L14.624,32.4a2.929,2.929,0,0,0,4.148,0L29.533,21.639A2.917,2.917,0,0,0,29.533,17.491Z" transform="translate(-2.997 1.294)" fill="#121212"/>
</svg>
