<svg id="icon_temperature" data-name="icon / temperature" xmlns="http://www.w3.org/2000/svg" width="36" height="36" viewBox="0 0 36 36">
  <rect id="frame" width="36" height="36" fill="none"/>
  <path id="icons8-central-heating" d="M8,3,2,11H6a9.812,9.812,0,0,0,2.371,5.828c1,1.4,1.629,2.351,1.629,3.5s-.629,2.1-1.629,3.5A9.813,9.813,0,0,0,6,29.664,9.825,9.825,0,0,0,8.371,35.5C9.371,36.9,10,37.847,10,39h4a9.813,9.813,0,0,0-2.371-5.828c-1-1.4-1.629-2.355-1.629-3.508s.629-2.1,1.629-3.5A9.813,9.813,0,0,0,14,20.332,9.812,9.812,0,0,0,11.629,14.5C10.629,13.1,10,12.153,10,11h4Zm6,8h4a9.812,9.812,0,0,0,2.371,5.828c1,1.4,1.629,2.351,1.629,3.5s-.629,2.1-1.629,3.5A9.813,9.813,0,0,0,18,29.664,9.825,9.825,0,0,0,20.371,35.5C21.371,36.9,22,37.847,22,39h4a9.813,9.813,0,0,0-2.371-5.828c-1-1.4-1.629-2.355-1.629-3.508s.629-2.1,1.629-3.5A9.813,9.813,0,0,0,26,20.332,9.812,9.812,0,0,0,23.629,14.5C22.629,13.1,22,12.153,22,11h4L20,3Zm12,0h4a9.812,9.812,0,0,0,2.371,5.828c1,1.4,1.629,2.351,1.629,3.5s-.629,2.1-1.629,3.5A9.813,9.813,0,0,0,30,29.664,9.825,9.825,0,0,0,32.371,35.5C33.371,36.9,34,37.847,34,39h4a9.813,9.813,0,0,0-2.371-5.828c-1-1.4-1.629-2.355-1.629-3.508s.629-2.1,1.629-3.5A9.813,9.813,0,0,0,38,20.332,9.812,9.812,0,0,0,35.629,14.5C34.629,13.1,34,12.153,34,11h4L32,3Z" transform="translate(-2 -3)" />
</svg>
