<svg id="icon_unload_all" data-name="icon / unload all" xmlns="http://www.w3.org/2000/svg" width="36" height="36" viewBox="0 0 36 36">
  <path id="frame" d="M0,0H36V36H0Z" transform="translate(0)" fill="none"/>
  <path id="undo-variant" d="M18.281,11.159a12.508,12.508,0,0,1,0,25.016H15.546V32.327h2.735a8.659,8.659,0,0,0,0-17.319H11.37L17.3,20.954l-2.713,2.713L4,13.084,14.584,2.5l2.733,2.713L11.37,11.159h6.911M7.849,32.327H11.7v3.849H7.849Z" transform="translate(-4 -1.588)" fill="#121212"/>
  <path id="Path_499" data-name="Path 499" d="M13743.018,10876.228h0v-.494a16.3,16.3,0,0,0,3.788-4.214,8.622,8.622,0,0,0,4.87-7.8,8.744,8.744,0,0,0-1-4.06,8.643,8.643,0,0,0-2.657-3.025,16.229,16.229,0,0,0-3.611-5.346,12.508,12.508,0,0,1-1.393,24.938Z" transform="translate(-13719.734 -10841.641)" fill="#121212"/>
</svg>
