<svg id="icon_usb" data-name="icon / usb" xmlns="http://www.w3.org/2000/svg" width="36" height="36" viewBox="0 0 36 36">
  <rect id="frame" width="36" height="36" fill="none"/>
  <path id="icons8-usb-on" d="M7.521,4V18.414A5.3,5.3,0,0,0,4,23.365V35.407H32.167V23.365a5.3,5.3,0,0,0-3.521-4.951V4Zm3.521,3.521H25.125V18.084H11.042Zm1.76,1.76V12.8h3.521V9.281Zm7.042,0V12.8h3.521V9.281ZM9.281,21.6h17.6a1.733,1.733,0,0,1,1.76,1.76V35.407H7.521V23.365A1.733,1.733,0,0,1,9.281,21.6Zm8.8,3.521a1.76,1.76,0,1,0,1.76,1.76A1.76,1.76,0,0,0,18.084,25.125Z" transform="translate(-0.084 -1.209)" fill="#121212"/>
</svg>
