<svg id="icon_wifi" data-name="icon / wifi" xmlns="http://www.w3.org/2000/svg" width="36" height="36" viewBox="0 0 36 36">
  <rect id="frame" width="35.95" height="36" transform="translate(0.05)" fill="none"/>
  <path id="Path_451" data-name="Path 451" d="M1,11.887l3.268,3.268a20.8,20.8,0,0,1,29.414,0l3.268-3.268A25.436,25.436,0,0,0,1,11.887ZM14.073,24.96l4.9,4.9,4.9-4.9A6.924,6.924,0,0,0,14.073,24.96ZM7.536,18.423,10.8,21.691a11.559,11.559,0,0,1,16.341,0l3.268-3.268A16.2,16.2,0,0,0,7.536,18.423Z" transform="translate(-1 1.224)"/>
</svg>
