<svg width="36" height="36" viewBox="0 0 36 36" fill="none" xmlns="http://www.w3.org/2000/svg">
<g clip-path="url(#clip0)">
<path d="M18 0C14.4399 0 10.9598 1.05568 7.99974 3.03355C5.03966 5.01141 2.73255 7.82263 1.37018 11.1117C0.00779903 14.4008 -0.348661 18.02 0.345873 21.5116C1.04041 25.0033 2.75474 28.2106 5.27209 30.7279C7.78943 33.2453 10.9967 34.9596 14.4884 35.6541C17.98 36.3487 21.5992 35.9922 24.8883 34.6298C28.1774 33.2675 30.9886 30.9603 32.9665 28.0003C34.9443 25.0402 36 21.5601 36 18C35.9929 13.2283 34.0942 8.65407 30.72 5.27997C27.3459 1.90586 22.7717 0.0071415 18 0V0ZM18 3.6C20.8481 3.6 23.6322 4.44455 26.0002 6.02684C28.3683 7.60913 30.214 9.8581 31.3039 12.4894C32.3938 15.1206 32.6789 18.016 32.1233 20.8093C31.5677 23.6026 30.1962 26.1685 28.1823 28.1823C26.1685 30.1962 23.6026 31.5677 20.8093 32.1233C18.016 32.6789 15.1206 32.3938 12.4894 31.3039C9.85811 30.214 7.60914 28.3683 6.02685 26.0002C4.44455 23.6321 3.60001 20.8481 3.60001 18C3.59645 16.108 3.96649 14.2338 4.6889 12.4852C5.4113 10.7365 6.47186 9.1476 7.80974 7.80973C9.14761 6.47186 10.7365 5.4113 12.4852 4.68889C14.2339 3.96648 16.108 3.59644 18 3.6V3.6ZM16.2 9V12.6H19.8V9H16.2ZM16.2 16.2V27H19.8V16.2H16.2Z"  />
</g>
<defs>
<clipPath id="clip0">
<rect width="36" height="36" fill="white"/>
</clipPath>
</defs>
</svg>
