<svg width="36" height="36" viewBox="0 0 36 36" fill="none" xmlns="http://www.w3.org/2000/svg">
<path fill-rule="evenodd" clip-rule="evenodd" d="M4 6C3.44772 6 3 6.44772 3 7V32C3 32.5523 3.44772 33 4 33H32C32.5523 33 33 32.5523 33 32V7C33 6.44772 32.5523 6 32 6H4ZM0 7C0 4.79086 1.79086 3 4 3H32C34.2091 3 36 4.79086 36 7V32C36 34.2091 34.2091 36 32 36H4C1.79086 36 0 34.2091 0 32V7Z"  />
<path fill-rule="evenodd" clip-rule="evenodd" d="M0.5 31.5C0.5 30.3954 1.39543 29.5 2.5 29.5H33.5C34.6046 29.5 35.5 30.3954 35.5 31.5C35.5 32.6046 34.6046 33.5 33.5 33.5H2.5C1.39543 33.5 0.5 32.6046 0.5 31.5Z"  />
<path d="M14 0H11C9.89543 0 9 0.89543 9 2V9C9 10.1046 9.89543 11 11 11H14C15.1046 11 16 10.1046 16 9V2C16 0.89543 15.1046 0 14 0Z"  />
<path d="M31.62 30L24.925 12H19.381L12.598 30H17.138L18.614 25.719H25.486L26.961 30H31.62ZM24.395 22.393H19.676L21.947 15.559H22.094L24.395 22.393Z"  />
</svg>
