<svg width="36" height="36" viewBox="0 0 36 36" fill="none" xmlns="http://www.w3.org/2000/svg">
<path d="M27.689 18C27.6866 18.4199 27.6558 18.8392 27.597 19.255L30.329 21.396C30.4489 21.494 30.5297 21.6317 30.5569 21.7841C30.584 21.9365 30.5557 22.0936 30.477 22.227L27.889 26.689C27.8105 26.8213 27.6878 26.9216 27.5425 26.9723C27.3973 27.023 27.2388 27.0208 27.095 26.966L23.889 25.678C23.2153 26.1982 22.4755 26.6266 21.689 26.952L21.228 30.367C21.2012 30.5199 21.1221 30.6587 21.0042 30.7597C20.8864 30.8608 20.7372 30.9178 20.582 30.921H15.416C15.2608 30.9178 15.1116 30.8608 14.9937 30.7597C14.8759 30.6587 14.7968 30.5199 14.77 30.367L14.309 26.952C13.5204 26.6308 12.7801 26.2021 12.109 25.678L8.897 26.97C8.75322 27.0248 8.59473 27.027 8.44947 26.9763C8.30421 26.9256 8.18151 26.8253 8.103 26.693L5.523 22.227C5.44432 22.0936 5.41599 21.9365 5.44314 21.7841C5.47028 21.6317 5.55112 21.494 5.671 21.396L8.403 19.255C8.27997 18.4229 8.27997 17.5771 8.403 16.745L5.671 14.604C5.5518 14.5055 5.47149 14.3679 5.44438 14.2157C5.41727 14.0635 5.44513 13.9066 5.523 13.773L8.107 9.306C8.18 9.16778 8.301 9.061 8.44723 9.00575C8.59346 8.95051 8.75483 8.95059 8.901 9.006L12.113 10.316C12.7796 9.78531 13.5209 9.35601 14.313 9.042L14.774 5.609C14.805 5.45978 14.8859 5.32555 15.0033 5.22834C15.1207 5.13112 15.2676 5.0767 15.42 5.074H20.589C20.7414 5.0767 20.8883 5.13112 21.0057 5.22834C21.1231 5.32555 21.2039 5.45978 21.235 5.609L21.689 9.049C22.479 9.3672 23.2198 9.79616 23.889 10.323L27.101 9.013C27.2472 8.95759 27.4085 8.95751 27.5548 9.01275C27.701 9.068 27.822 9.17478 27.895 9.313L30.479 13.78C30.5569 13.9136 30.5847 14.0705 30.5576 14.2227C30.5305 14.3749 30.4502 14.5125 30.331 14.611L27.599 16.752C27.6578 17.1678 27.6886 17.5871 27.691 18.007L27.689 18ZM30.92 1.389H5.08C4.59484 1.38742 4.11417 1.4818 3.66564 1.66673C3.21711 1.85166 2.80959 2.12348 2.46653 2.46654C2.12347 2.80959 1.85166 3.21711 1.66673 3.66564C1.4818 4.11417 1.38741 4.59485 1.389 5.08V30.92C1.389 31.8989 1.77787 32.8377 2.47007 33.5299C3.16226 34.2221 4.10108 34.611 5.08 34.611H30.92C31.8989 34.611 32.8377 34.2221 33.5299 33.5299C34.2221 32.8377 34.611 31.8989 34.611 30.92V5.08C34.6111 4.59525 34.5157 4.11523 34.3303 3.66736C34.1449 3.21949 33.873 2.81254 33.5302 2.46978C33.1875 2.12701 32.7805 1.85514 32.3326 1.66969C31.8848 1.48425 31.4047 1.38887 30.92 1.389V1.389ZM18 14.309C17.2699 14.3086 16.5561 14.5247 15.9488 14.9301C15.3416 15.3354 14.8682 15.9117 14.5885 16.5861C14.3089 17.2605 14.2355 18.0027 14.3777 18.7189C14.5199 19.435 14.8712 20.0928 15.3874 20.6092C15.9035 21.1256 16.5611 21.4774 17.2772 21.6199C17.9932 21.7625 18.7355 21.6895 19.41 21.4102C20.0846 21.1309 20.6611 20.6578 21.0668 20.0508C21.4725 19.4438 21.689 18.7301 21.689 18C21.6906 17.515 21.5963 17.0345 21.4115 16.5861C21.2266 16.1377 20.955 15.7303 20.6122 15.3872C20.2693 15.0442 19.862 14.7724 19.4137 14.5873C18.9654 14.4023 18.485 14.3077 18 14.309V14.309Z"  />
</svg>
