<svg width="36" height="36" viewBox="0 0 36 36" fill="none" xmlns="http://www.w3.org/2000/svg">
<path d="M28.5 23.385L26.385 25.5L21 20.115L15.615 25.5L13.5 23.385L18.885 18L13.5 12.615L15.615 10.5L21 15.885L26.385 10.5L28.5 12.615L23.115 18L28.5 23.385ZM33 4.5C33.7956 4.5 34.5587 4.81607 35.1213 5.37868C35.6839 5.94129 36 6.70435 36 7.5V28.5C36 29.2956 35.6839 30.0587 35.1213 30.6213C34.5587 31.1839 33.7956 31.5 33 31.5H10.5C10.0222 31.4963 9.55307 31.372 9.13613 31.1386C8.71919 30.9053 8.36795 30.5704 8.115 30.165L0 18L8.115 5.82C8.36877 5.41652 8.72058 5.08387 9.13762 4.85306C9.55466 4.62224 10.0233 4.50078 10.5 4.5H33ZM33 7.5H10.5L3.42 18L10.5 28.5H33V7.5Z"  />
</svg>
