<svg width="36" height="36" viewBox="0 0 36 36" fill="none" xmlns="http://www.w3.org/2000/svg">
<path d="M18 0.285999C14.3964 0.285718 10.928 1.65884 8.30119 4.12582C5.67434 6.59281 4.08642 9.96818 3.86072 13.5648C3.63502 17.1613 4.7885 20.7088 7.08633 23.4848C9.38416 26.2608 12.6536 28.0568 16.229 28.507V32.171H9.14301V35.714H26.857V32.171H19.771V28.507C23.3464 28.0568 26.6159 26.2608 28.9137 23.4848C31.2115 20.7088 32.365 17.1613 32.1393 13.5648C31.9136 9.96818 30.3257 6.59281 27.6988 4.12582C25.072 1.65884 21.6037 0.285718 18 0.285999V0.285999ZM18 3.829C20.102 3.829 22.1568 4.45232 23.9046 5.62014C25.6524 6.78796 27.0146 8.44783 27.819 10.3898C28.6234 12.3319 28.8339 14.4688 28.4238 16.5304C28.0137 18.592 27.0015 20.4858 25.5151 21.9721C24.0288 23.4585 22.1351 24.4707 20.0734 24.8808C18.0118 25.2909 15.8749 25.0804 13.9329 24.276C11.9908 23.4716 10.331 22.1094 9.16315 20.3616C7.99533 18.6138 7.37201 16.559 7.37201 14.457C7.36832 13.0603 7.6407 11.6766 8.17349 10.3855C8.70629 9.09436 9.489 7.92127 10.4766 6.93363C11.4643 5.94599 12.6374 5.16328 13.9285 4.63048C15.2196 4.09768 16.6033 3.82531 18 3.829V3.829ZM18 7.372C16.5985 7.372 15.2285 7.78759 14.0632 8.56621C12.898 9.34483 11.9897 10.4515 11.4534 11.7463C10.9171 13.0411 10.7768 14.4659 11.0502 15.8404C11.3236 17.215 11.9985 18.4776 12.9895 19.4686C13.9804 20.4596 15.2431 21.1344 16.6176 21.4078C17.9921 21.6813 19.4169 21.5409 20.7117 21.0046C22.0065 20.4683 23.1132 19.5601 23.8918 18.3948C24.6704 17.2295 25.086 15.8595 25.086 14.458C25.0789 12.5809 24.3301 10.7826 23.0027 9.4553C21.6754 8.12795 19.8771 7.37911 18 7.372V7.372ZM18 10.915C18.4689 10.9016 18.9356 10.9841 19.3715 11.1574C19.8075 11.3307 20.2034 11.5912 20.5351 11.9229C20.8668 12.2546 21.1273 12.6505 21.3006 13.0865C21.4739 13.5224 21.5564 13.9891 21.543 14.458C21.543 15.1587 21.3352 15.8437 20.9459 16.4264C20.5566 17.009 20.0033 17.4631 19.3559 17.7313C18.7085 17.9995 17.9961 18.0696 17.3088 17.9329C16.6215 17.7962 15.9902 17.4588 15.4947 16.9633C14.9992 16.4678 14.6618 15.8365 14.5251 15.1492C14.3884 14.4619 14.4585 13.7496 14.7267 13.1022C14.9949 12.4548 15.449 11.9014 16.0316 11.5121C16.6143 11.1228 17.2993 10.915 18 10.915V10.915Z"  />
</svg>
