<svg width="36" height="36" viewBox="0 0 36 36" fill="none" xmlns="http://www.w3.org/2000/svg">
<g clip-path="url(#clip0)">
<path d="M28.945 11.914L18.15 18V30.018L28.95 23.953V11.914H28.945ZM34.35 9.898C34.3509 9.57201 34.2625 9.25201 34.0943 8.97275C33.9261 8.6935 33.6846 8.46567 33.396 8.314L19.173 0.324C18.8725 0.113064 18.5142 -0.000110626 18.147 -0.000110626C17.7798 -0.000110626 17.4216 0.113064 17.121 0.324L2.90403 8.314C2.61516 8.46582 2.37347 8.69397 2.20527 8.97361C2.03706 9.25325 1.94878 9.57367 1.95003 9.9V26.1C1.94914 26.426 2.0376 26.746 2.20579 27.0252C2.37397 27.3045 2.61546 27.5323 2.90403 27.684L17.121 35.674C17.4216 35.8849 17.7798 35.9981 18.147 35.9981C18.5142 35.9981 18.8725 35.8849 19.173 35.674L33.39 27.684C33.6786 27.5323 33.9201 27.3045 34.0883 27.0252C34.2565 26.746 34.3449 26.426 34.344 26.1V9.9L34.35 9.898ZM18.15 32.124L5.55003 25.033V10.96L18.15 3.869L30.75 10.96V25.033L18.15 32.124Z"  />
</g>
<defs>
<clipPath id="clip0">
<rect width="36" height="36" fill="white"/>
</clipPath>
</defs>
</svg>
