<svg width="36" height="36" viewBox="0 0 36 36" fill="none" xmlns="http://www.w3.org/2000/svg">
<path fill-rule="evenodd" clip-rule="evenodd" d="M0 34.003L2.88 15.454C3.03502 14.5287 3.50005 13.6835 4.19874 13.0573C4.89743 12.4311 5.78827 12.0611 6.725 12.008H14.519C14.601 12.003 14.685 12.003 14.768 12.003H29.768C31.3593 12.003 32.8854 12.6351 34.0106 13.7604C35.1359 14.8856 35.768 16.4117 35.768 18.003V33.575C35.768 33.719 35.763 33.862 35.753 34.003H32.738C32.7581 33.8612 32.7681 33.7182 32.768 33.575V18.003C32.768 16.381 29.824 15.117 29.768 15.503L26.912 34.003H23.883L26.828 15.86C26.8728 15.5958 26.8859 15.3273 26.867 15.06C26.746 15.033 25.948 15.01 25.948 15.01H6.726C6.51329 15.0633 6.31915 15.1736 6.16444 15.329C6.00974 15.4844 5.90033 15.6791 5.848 15.892L3.037 34.003H0Z"  />
<path d="M12.096 26.738H22.768L21.518 34.003H10.677L12.096 26.738Z"  />
<path fill-rule="evenodd" clip-rule="evenodd" d="M25.102 12.611C25.1633 10.8085 25.0965 9.00399 24.902 7.211C24.7892 6.1699 24.3523 5.19051 23.653 4.411C23.015 3.774 22.591 3.36 20.704 3.165C18.74 2.964 14.532 3.003 4.268 3.003V6.003C12.703 6.003 16.99 5.971 19.306 6.076C20.887 6.148 21.158 6.161 21.53 6.534C21.8749 7.05215 22.0446 7.66728 22.014 8.289C22.126 9.462 22.102 10.924 22.102 12.611H25.102Z"  />
</svg>
