<svg width="36" height="36" viewBox="0 0 36 36" fill="none" xmlns="http://www.w3.org/2000/svg">
<path d="M14.171 0.285999C10.5673 0.285718 7.09904 1.65884 4.47218 4.12582C1.84533 6.59281 0.25741 9.96818 0.0317078 13.5648C-0.193995 17.1613 0.959485 20.7088 3.25732 23.4848C5.55515 26.2608 8.82458 28.0568 12.4 28.507V32.171H5.314V35.714H23.028V32.171H15.942V28.507C19.5174 28.0568 22.7869 26.2608 25.0847 23.4848C27.3825 20.7088 28.536 17.1613 28.3103 13.5648C28.0846 9.96818 26.4967 6.59281 23.8698 4.12582C21.243 1.65884 17.7747 0.285718 14.171 0.285999ZM14.171 3.829C16.273 3.829 18.3278 4.45232 20.0756 5.62014C21.8234 6.78796 23.1856 8.44783 23.99 10.3898C24.7944 12.3319 25.0049 14.4688 24.5948 16.5304C24.1847 18.592 23.1725 20.4858 21.6861 21.9721C20.1998 23.4585 18.306 24.4707 16.2444 24.8808C14.1828 25.2909 12.0459 25.0804 10.1038 24.276C8.16183 23.4716 6.50196 22.1094 5.33414 20.3616C4.16632 18.6138 3.543 16.559 3.543 14.457C3.53931 13.0603 3.81169 11.6766 4.34448 10.3855C4.87728 9.09436 5.65999 7.92127 6.64763 6.93363C7.63527 5.94599 8.80836 5.16328 10.0995 4.63048C11.3906 4.09768 12.7743 3.82531 14.171 3.829ZM14.171 7.372C12.7695 7.372 11.3995 7.78759 10.2342 8.56621C9.06894 9.34483 8.16071 10.4515 7.62439 11.7463C7.08807 13.0411 6.94774 14.4659 7.22116 15.8404C7.49457 17.215 8.16945 18.4776 9.16044 19.4686C10.1514 20.4596 11.414 21.1344 12.7886 21.4078C14.1631 21.6813 15.5879 21.5409 16.8827 21.0046C18.1775 20.4683 19.2842 19.5601 20.0628 18.3948C20.8414 17.2295 21.257 15.8595 21.257 14.458C21.2499 12.5809 20.501 10.7826 19.1737 9.4553C17.8464 8.12795 16.0481 7.37911 14.171 7.372ZM14.171 10.915C14.6399 10.9016 15.1066 10.9841 15.5425 11.1574C15.9785 11.3307 16.3744 11.5912 16.7061 11.9229C17.0378 12.2546 17.2983 12.6505 17.4716 13.0865C17.6449 13.5224 17.7274 13.9891 17.714 14.458C17.714 15.1587 17.5062 15.8437 17.1169 16.4264C16.7276 17.009 16.1742 17.4631 15.5268 17.7313C14.8795 17.9995 14.1671 18.0696 13.4798 17.9329C12.7925 17.7962 12.1612 17.4588 11.6657 16.9633C11.1702 16.4678 10.8328 15.8365 10.6961 15.1492C10.5594 14.4619 10.6295 13.7496 10.8977 13.1022C11.1659 12.4548 11.62 11.9014 12.2026 11.5121C12.7853 11.1228 13.4703 10.915 14.171 10.915Z"  />
<path d="M35.681 5.624V10.363H31V5.624H35.681ZM35.681 15.165V19.904H31V15.165H35.681ZM35.681 24.706V29.445H31V24.71L35.681 24.706Z"  />
</svg>
