<svg width="37" height="36" viewBox="0 0 37 36" fill="none" xmlns="http://www.w3.org/2000/svg">
<path d="M17.327 32.621C15.241 29.921 13.282 27.388 10.983 24.421C7.524 19.949 3.948 15.331 0 10.189C2.44279 8.20511 5.20425 6.64973 8.167 5.589C14.0984 3.46781 20.5816 3.46781 26.513 5.589C29.4823 6.64951 32.2507 8.20479 34.701 10.189L31.188 14.721L31.179 14.714L24.467 22.914L20.261 19.035L14.806 25.535L19.443 29.892L19.009 30.455C18.387 31.255 17.809 32.005 17.327 32.625V32.621Z"  />
<path d="M32.6973 18.0481L25.2938 26.8835L20.5012 22.6273L18.156 25.4245L25.52 32.0537L35.2708 20.422L32.6973 18.0481Z"  />
</svg>
