<svg width="36" height="36" viewBox="0 0 36 36" fill="none" xmlns="http://www.w3.org/2000/svg">
<path d="M11.5 2H28.5V10.5H31.9V20.7H27.65L21.7 27.5H18.3L12.35 20.7H8.1V10.5H11.5V2ZM16.6 36H3V32.6H16.6C17.0509 32.6 17.4833 32.4209 17.8021 32.1021C18.1209 31.7833 18.3 31.3509 18.3 30.9V29.2H21.7V30.9C21.7 31.5697 21.5681 32.2329 21.3118 32.8517C21.0555 33.4704 20.6798 34.0327 20.2062 34.5062C19.7327 34.9798 19.1704 35.3555 18.5517 35.6118C17.9329 35.8681 17.2697 36 16.6 36V36ZM11.5 13.9V17.3H14.05L20 24.1L25.95 17.3H28.5V13.9H25.1V5.4H14.9V13.9H11.5Z"  />
</svg>
