<svg width="36" height="36" viewBox="0 0 36 36" fill="none" xmlns="http://www.w3.org/2000/svg">
<g clip-path="url(#clip0)">
<path d="M18 0C14.4399 0 10.9598 1.05568 7.99974 3.03355C5.03966 5.01141 2.73255 7.82263 1.37018 11.1117C0.00779903 14.4008 -0.348661 18.02 0.345873 21.5116C1.04041 25.0033 2.75474 28.2106 5.27209 30.7279C7.78943 33.2453 10.9967 34.9596 14.4884 35.6541C17.98 36.3487 21.5992 35.9922 24.8883 34.6298C28.1774 33.2675 30.9886 30.9603 32.9665 28.0003C34.9443 25.0402 36 21.5601 36 18C35.986 13.2304 34.0851 8.66015 30.7125 5.28752C27.3399 1.9149 22.7696 0.0139821 18 0V0ZM18 3.6C21.8191 3.6 25.4818 5.11714 28.1823 7.81766C30.8829 10.5182 32.4 14.1809 32.4 18C32.4 21.8191 30.8829 25.4818 28.1823 28.1823C25.4818 30.8829 21.8191 32.4 18 32.4C17.655 32.4 17.325 32.365 16.988 32.344C14.941 30.966 10.462 26.93 10.462 18C10.462 9.07 14.941 5.034 16.988 3.656C17.325 3.635 17.655 3.6 18 3.6Z"  />
</g>
<defs>
<clipPath id="clip0">
<rect width="36" height="36" fill="white"/>
</clipPath>
</defs>
</svg>
