<svg width="36" height="36" viewBox="0 0 36 36" fill="none" xmlns="http://www.w3.org/2000/svg">
<path fill-rule="evenodd" clip-rule="evenodd" d="M22.931 0H22.7L22.238 0.0139999L22.007 0.0280001L21.783 0.0350001L21.552 0.056L21.328 0.0699999L21.104 0.098L20.873 0.112L20.649 0.14L20.425 0.175L20.208 0.21L19.984 0.238L19.76 0.28L19.543 0.322L19.319 0.364L19.102 0.406L18.885 0.462L18.451 0.562L18.031 0.689L17.814 0.745L17.394 0.872L17.194 0.942L16.977 1.019L16.777 1.096L16.577 1.166L16.171 1.335L15.971 1.412L15.771 1.503L15.571 1.587L15.371 1.687L15.171 1.771L14.779 1.971L14.59 2.071L14.39 2.176L14.201 2.281L14.012 2.393L13.83 2.498L13.641 2.61L13.459 2.723L13.27 2.843L13.095 2.955L12.913 3.082L12.738 3.202L12.556 3.322L12.388 3.449L12.206 3.583L12.038 3.717L11.87 3.844L11.702 3.985L11.366 4.252L11.205 4.393L10.883 4.693L10.722 4.834L10.568 4.989L10.414 5.13L10.106 5.439L9.96599 5.594L9.81199 5.749L9.67199 5.911L9.37799 6.234L9.23799 6.396L8.97199 6.733L8.83199 6.902L8.70599 7.071L8.57299 7.24L8.43999 7.423L8.31399 7.592L8.19499 7.775L8.07599 7.951L7.94999 8.134L7.82999 8.3L7.71099 8.49L7.59899 8.673L7.48699 8.863L7.38199 9.046L7.26999 9.236L7.16499 9.426L7.05999 9.626L6.85999 10.006L6.75999 10.206L6.67599 10.406L6.57599 10.606L6.49199 10.806L6.40099 11.006L6.32399 11.206L6.15599 11.614L6.08599 11.814L5.93199 12.236L5.86199 12.436L5.73599 12.858L5.67999 13.076L5.55999 13.5L5.45999 13.936L5.40399 14.154L5.36199 14.372L5.31999 14.597L5.27799 14.815L5.23599 15.04L5.20799 15.265L5.17299 15.483L5.13799 15.708L5.10999 15.933L5.09599 16.165L5.06799 16.39L5.05399 16.615L5.03299 16.847L5.02599 17.072L5.01199 17.304L4.99799 17.768V18.232L5.01199 18.696L5.02599 18.928L5.03299 19.153L5.05399 19.385L5.06799 19.61L5.09599 19.835L5.10999 20.067L5.13799 20.292L5.17299 20.517L5.20799 20.735L5.23599 20.96L5.27799 21.185L5.31999 21.403L5.36199 21.628L5.40399 21.846L5.45999 22.064L5.55999 22.5L5.68599 22.922L5.74199 23.14L5.86799 23.562L5.93799 23.762L6.01499 23.98L6.09199 24.18L6.16199 24.38L6.32999 24.788L6.40699 24.988L6.49799 25.188L6.58199 25.388L6.68199 25.588L6.76599 25.788L6.96599 26.182L7.06599 26.372L7.17099 26.572L7.27599 26.762L7.38799 26.952L7.49299 27.135L7.60499 27.325L7.71699 27.508L7.83599 27.698L7.94799 27.874L8.07399 28.057L8.31199 28.409L8.43799 28.592L8.57099 28.768L8.70399 28.937L8.82999 29.106L8.96999 29.275L9.23599 29.612L9.37599 29.774L9.66999 30.097L9.80999 30.259L9.96399 30.414L10.104 30.569L10.412 30.878L10.566 31.019L10.72 31.174L10.881 31.322L11.042 31.463L11.203 31.611L11.364 31.752L11.532 31.886L11.7 32.027L11.868 32.154L12.204 32.421L12.386 32.548L12.554 32.682L12.736 32.802L12.911 32.929L13.093 33.049L13.268 33.161L13.457 33.281L13.639 33.394L13.828 33.507L14.01 33.612L14.199 33.724L14.388 33.829L14.588 33.929L14.777 34.034L15.169 34.234L15.369 34.318L15.569 34.409L15.769 34.509L16.378 34.762L16.578 34.832L16.984 34.987L17.201 35.057L17.401 35.134L17.821 35.261L18.038 35.324L18.248 35.38L18.458 35.443L18.675 35.492L18.892 35.548L19.109 35.59L19.326 35.639L19.55 35.681L19.767 35.723L19.991 35.758L20.215 35.8L20.432 35.828L20.656 35.863L20.88 35.891L21.111 35.912L21.335 35.933L21.559 35.947L21.79 35.968L22.014 35.975L22.245 35.989L22.7 36H23.2L23.466 35.993L23.739 35.979L24.005 35.972L24.271 35.951L24.544 35.93L24.803 35.902L25.069 35.874L25.335 35.839L25.594 35.804L25.86 35.762L26.112 35.72L26.371 35.664L26.623 35.615L26.882 35.559L27.134 35.503L27.634 35.376L27.886 35.299L28.131 35.229L28.383 35.152L28.628 35.075L28.866 34.991L29.356 34.808L29.587 34.708L29.832 34.617L30.294 34.406L30.532 34.306L30.763 34.194L30.987 34.082L30.714 33.941L30.448 33.786L30.175 33.638L29.916 33.483L29.65 33.328L29.391 33.159L28.891 32.822L28.639 32.646L28.149 32.28L27.673 31.9L27.442 31.7L27.211 31.5L26.987 31.3L26.539 30.878L26.119 30.442L25.902 30.224L25.702 29.999L25.114 29.299L24.925 29.053L24.743 28.814L24.554 28.568L24.386 28.315L24.211 28.062L23.875 27.556L23.714 27.289L23.553 27.029L23.406 26.762L23.259 26.488L23.119 26.214L22.979 25.947L22.713 25.385L22.594 25.104L22.356 24.527L22.3 24.379L22.25 24.244L22.194 24.096L22.145 23.948L22.089 23.8L21.989 23.5L21.947 23.352L21.898 23.197L21.856 23.049L21.807 22.901L21.772 22.746L21.723 22.598L21.688 22.443L21.65 22.3L21.615 22.138L21.58 21.99L21.552 21.835L21.517 21.68L21.482 21.518L21.454 21.37L21.419 21.208L21.398 21.053L21.37 20.891L21.342 20.736L21.328 20.581L21.3 20.419L21.279 20.264L21.258 20.102L21.244 19.94L21.223 19.778L21.209 19.623L21.195 19.454L21.188 19.292L21.174 19.137L21.167 18.975L21.16 18.806L21.139 18.321V17.67L21.16 17.185L21.167 17.016L21.174 16.854L21.188 16.699L21.195 16.537L21.209 16.368L21.223 16.213L21.244 16.051L21.258 15.889L21.279 15.727L21.3 15.572L21.328 15.41L21.342 15.255L21.37 15.1L21.398 14.938L21.419 14.783L21.454 14.621L21.482 14.473L21.517 14.311L21.552 14.156L21.58 14.001L21.65 13.692L21.692 13.544L21.727 13.396L21.776 13.241L21.811 13.086L21.86 12.938L21.902 12.79L21.951 12.635L21.993 12.487L22.093 12.187L22.149 12.039L22.198 11.891L22.25 11.756L22.299 11.615L22.355 11.46L22.593 10.898L22.712 10.61L22.845 10.329L22.978 10.055L23.118 9.774L23.258 9.507L23.405 9.24L23.552 8.966L23.713 8.706L23.874 8.439L24.21 7.933L24.385 7.68L24.553 7.427L24.742 7.181L24.924 6.935L25.113 6.696L25.505 6.232L25.705 6.007L25.905 5.775L26.122 5.557L26.332 5.332L26.542 5.121L26.99 4.699L27.214 4.499L27.445 4.299L27.676 4.099L28.152 3.719L28.642 3.353L28.894 3.177L29.394 2.84L29.653 2.671L29.919 2.516L30.178 2.361L30.451 2.206L30.717 2.065L30.99 1.924L30.766 1.812L30.545 1.7L30.307 1.587L29.845 1.387L29.6 1.287L29.369 1.187L28.879 1.004L28.641 0.92L28.396 0.843L28.144 0.766L27.899 0.696L27.399 0.555L26.899 0.428L26.64 0.379L26.388 0.33L26.129 0.274L25.877 0.232L25.6 0.2L25.341 0.165L25.075 0.13L24.808 0.0999999L24.55 0.0699999L24.277 0.049L24.011 0.0280001L23.745 0.0139999L23.472 0.00699997L23.204 0H22.931ZM22.931 3.6H23.036L22.791 3.874L22.56 4.148L22.322 4.436L21.874 5.013L21.664 5.313L21.447 5.613L21.247 5.913L21.037 6.222L20.837 6.531L20.648 6.84L20.459 7.163L20.277 7.486L20.102 7.802L19.766 8.463L19.605 8.793L19.297 9.468L19.157 9.82L19.017 10.157L18.954 10.34L18.884 10.509L18.821 10.692L18.758 10.861L18.702 11.044L18.639 11.22L18.583 11.396L18.471 11.762L18.415 11.938L18.366 12.114L18.31 12.297L18.261 12.48L18.219 12.663L18.17 12.846L18.128 13.036L18.086 13.219L18.044 13.409L18.002 13.592L17.967 13.775L17.897 14.155L17.862 14.338L17.806 14.718L17.778 14.918L17.75 15.108L17.722 15.291L17.694 15.491L17.68 15.681L17.659 15.881L17.638 16.071L17.624 16.261L17.61 16.461L17.596 16.651L17.582 16.851L17.575 17.041L17.554 17.632V18.419L17.575 19.01L17.582 19.2L17.596 19.4L17.61 19.59L17.624 19.79L17.638 19.98L17.659 20.17L17.68 20.37L17.694 20.56L17.722 20.76L17.75 20.943L17.778 21.133L17.806 21.333L17.834 21.523L17.862 21.706L17.932 22.086L17.967 22.269L18.002 22.459L18.044 22.649L18.17 23.197L18.219 23.387L18.261 23.563L18.31 23.753L18.366 23.929L18.415 24.112L18.471 24.288L18.583 24.654L18.639 24.83L18.702 25.013L18.758 25.189L18.821 25.358L18.884 25.534L18.954 25.717L19.017 25.893L19.157 26.231L19.297 26.576L19.605 27.251L19.766 27.588L20.102 28.249L20.277 28.565L20.459 28.888L20.648 29.211L20.837 29.52L21.037 29.829L21.247 30.138L21.447 30.438L21.664 30.738L21.874 31.038L22.322 31.615L22.56 31.896L22.791 32.177L23.036 32.451H22.742L22.56 32.444H22.371L22.196 32.43L22.007 32.423L21.643 32.395L21.468 32.374L21.279 32.36L21.104 32.339L20.922 32.311L20.572 32.255L20.39 32.227L20.215 32.199L20.04 32.164L19.865 32.122L19.69 32.087L19.522 32.038L19.347 32.003L19.179 31.954L19.011 31.912L18.843 31.863L18.668 31.807L18.507 31.751L18.007 31.582L17.846 31.519L17.678 31.456L17.524 31.386L17.363 31.323L17.195 31.253L17.041 31.19L16.887 31.113L16.726 31.043L16.572 30.966L16.411 30.882L16.264 30.798L16.103 30.721L15.956 30.637L15.802 30.553L15.65 30.4L15.503 30.316L15.356 30.225L15.209 30.125L15.062 30.034L14.922 29.943L14.782 29.838L14.635 29.738L14.502 29.638L14.362 29.533L14.222 29.433L14.082 29.328L13.55 28.878L13.298 28.653L12.798 28.175L12.679 28.055L12.56 27.921L12.441 27.801L12.322 27.667L12.21 27.547L11.65 26.879L11.55 26.738L11.34 26.457L11.24 26.323L11.14 26.175L10.94 25.894L10.84 25.746L10.658 25.446L10.574 25.298L10.483 25.15L10.399 24.995L10.315 24.847L10.239 24.7L10.155 24.552L10.071 24.39L10.001 24.235L9.92399 24.08L9.84999 23.92L9.78699 23.765L9.71699 23.596L9.64999 23.435L9.57999 23.28L9.51699 23.111L9.44999 22.95L9.28199 22.444L9.22599 22.282L9.16999 22.106L9.12799 21.937L9.02799 21.599L8.98599 21.423L8.94999 21.255L8.87999 20.9L8.83799 20.724L8.80999 20.548L8.78199 20.365L8.72599 20.013L8.69799 19.83L8.68399 19.654L8.65599 19.471L8.61399 18.923L8.59999 18.733V18.557L8.59299 18.367L8.58599 18.184V17.804L8.59299 17.621L8.59999 17.431V17.255L8.61399 17.065L8.65599 16.517L8.68399 16.334L8.69799 16.158L8.72599 15.975L8.78199 15.623L8.80999 15.44L8.83799 15.264L8.87999 15.1L8.94999 14.748L8.99199 14.579L9.03399 14.403L9.13399 14.065L9.17599 13.896L9.23199 13.72L9.28799 13.558L9.44999 13.05L9.57599 12.727L9.64599 12.558L9.70899 12.403L9.77899 12.234L9.84999 12.08L9.92699 11.918L10.004 11.763L10.074 11.601L10.242 11.292L10.319 11.137L10.487 10.837L10.578 10.682L10.662 10.534L10.844 10.234L10.944 10.086L11.144 9.805L11.244 9.657L11.344 9.523L11.554 9.242L11.654 9.101L12.102 8.567L12.326 8.314L12.802 7.808L13.302 7.33L13.554 7.105L14.086 6.655L14.226 6.555L14.506 6.344L14.639 6.244L14.786 6.144L15.066 5.944L15.213 5.844L15.507 5.661L15.65 5.6L15.797 5.509L15.951 5.425L16.098 5.341L16.259 5.264L16.406 5.18L16.567 5.096L16.721 5.026L16.882 4.949L17.036 4.872L17.19 4.809L17.358 4.739L17.519 4.676L17.673 4.606L17.841 4.543L18.002 4.48L18.502 4.311L18.663 4.255L18.838 4.199L19.006 4.157L19.342 4.057L19.517 4.015L19.685 3.973L20.035 3.903L20.21 3.861L20.385 3.833L20.567 3.805L20.917 3.749L21.099 3.721L21.274 3.707L21.463 3.679L21.638 3.665L22.002 3.637L22.191 3.623H22.366L22.555 3.616L22.737 3.609L22.931 3.6Z"  />
</svg>
