<svg width="36" height="36" viewBox="0 0 36 36" fill="none" xmlns="http://www.w3.org/2000/svg">
<path d="M13.87 0.0509987L11.287 2.579L13.803 5.151C13.0142 6.10881 12.5813 7.31019 12.578 8.551C12.578 8.651 12.601 8.706 12.606 8.795C11.7144 9.03618 10.899 9.50083 10.237 10.145C9.61433 10.7724 9.03877 11.4449 8.515 12.157H1.737V15.771H6.463C5.98289 16.9288 5.6532 18.1434 5.482 19.385H1.737V22.999H5.437C5.52917 24.2216 5.74187 25.4322 6.072 26.613H1.737V30.227H7.659C7.90409 30.6182 8.17119 30.9951 8.459 31.356C9.61647 32.7521 11.078 33.865 12.7317 34.6094C14.3854 35.3538 16.1874 35.7101 18 35.651C19.8133 35.7098 21.616 35.3529 23.2701 34.6076C24.9242 33.8623 26.3858 32.7483 27.543 31.351C27.8308 30.9901 28.0979 30.6132 28.343 30.222H34.265V26.613H29.928C30.2604 25.4325 30.4744 24.2219 30.567 22.999H34.267V19.385H30.504C30.3229 18.1433 29.987 16.9292 29.504 15.771H34.258V12.157H27.468C26.9508 11.4437 26.3798 10.7711 25.76 10.145C25.0982 9.49712 24.2816 9.0293 23.388 8.786C23.393 8.698 23.416 8.64 23.416 8.542C23.4127 7.30119 22.9798 6.09981 22.191 5.142L24.707 2.573L22.129 0.0509987L19.023 3.225C18.3475 3.08854 17.6515 3.08854 16.976 3.225L13.87 0.0509987ZM14.156 12.156H21.843C22.3531 12.1494 22.8451 12.3445 23.212 12.699V12.699C25.4844 14.9658 26.8455 17.988 27.037 21.192C27.1718 24.0118 26.3566 26.7954 24.722 29.097C23.511 30.6326 21.748 31.6345 19.809 31.889V15.771H16.193V31.889C14.254 31.6345 12.491 30.6326 11.28 29.097C9.64536 26.7954 8.8302 24.0118 8.965 21.192C9.08185 17.9722 10.4536 14.9258 12.787 12.704V12.704C13.1532 12.3481 13.6453 12.1514 14.156 12.157V12.156Z"  />
</svg>
