<svg xmlns="http://www.w3.org/2000/svg" width="280" height="250" viewBox="0 0 280 250"><defs><style>.a{opacity:0.3;}.b,.d,.f{fill:none;}.b,.c,.d{stroke:#000;stroke-width:3px;}.b,.c{fill-rule:evenodd;}.c{fill:#fefefe;}.e{fill:#fe4141;}.g{fill:#fdfdfd;}</style></defs><g transform="translate(-480 -130)"><g class="a" transform="translate(420.212 -90.43)"><g transform="translate(101.5 239.5)"><path class="b" d="M132.7,10.407c0-4.916-3.41-8.907-7.61-8.907H11.236c-4.2,0-7.61,3.991-7.61,8.907L-3.5,106.6c0,4.916,3.41,8.907,7.61,8.907H117.963c4.2,0,7.61-3.991,7.61-8.907Z" transform="translate(25.589 -1.5)"/><g transform="translate(0 0)"><path class="c" d="M132.7,10.407c0-4.916-3.41-8.907-7.61-8.907h-111c-4.2,0-7.61,3.991-7.61,8.907L-3.5,106.6c0,4.916,3.41,8.907,7.61,8.907H116.538c4.2,0,9.036-5.416,9.036-10.332Z" transform="translate(3.5 -1.5)"/></g><path class="c" d="M34.032,4.076a2.412,2.412,0,0,0-2.2-2.576H-8.414a2.412,2.412,0,0,0-2.2,2.576L-13.5,31.893a2.412,2.412,0,0,0,2.2,2.576h41.07a2.412,2.412,0,0,0,2.2-2.576Z" transform="translate(81.503 64.576)"/><path class="d" d="M.4,0H65.749L78.23,17.963c1.658,2.382.772,5.506-2.926,7.566s-7.758,4.083-12.056,6.232c-3.9,1.95-8.051,3.3-11.667,3.249,0,0-26.495.506-51.179.877-7.918-.11-8.429.108-9.264-2.32s4.448-4,11.329-6.13c3.12-.968,8.565-2.9,11.294-3.989s2.341-3.961.925-5.484C14.677,17.942.4,0,.4,0Z" transform="translate(48.962 114.046)"/></g></g><path class="e" d="M49.5,0A49.5,49.5,0,1,1,0,49.5,49.5,49.5,0,0,1,49.5,0Z" transform="translate(647 201)"/><rect class="f" width="280" height="250" transform="translate(480 130)"/><path class="g" d="M19.749,1V17.456H12.362a4.4,4.4,0,0,0-4.451,3.487L4,44.2H40L36.087,20.944a4.4,4.4,0,0,0-4.451-3.487H24.249V1ZM12.362,21.57H31.636l.694,4.114H11.668ZM10.974,29.8H33.024l1.731,10.285H9.242Z" transform="translate(675 227.802)"/></g></svg>