<svg xmlns="http://www.w3.org/2000/svg" width="280" height="250" viewBox="0 0 280 250"><defs><style>.a,.c,.e{fill:none;}.a,.b,.c{stroke:#b1b1b1;stroke-width:3px;}.a,.b{fill-rule:evenodd;}.b{fill:#fefefe;}.d{fill:#1dbc94;}.f{fill:#fdfdfd;}</style></defs><g transform="translate(-480 -130)"><g transform="translate(389 -78.309)"><g transform="translate(101.5 239.5)"><path class="a" d="M162.567,12.36c0-5.994-4.158-10.86-9.279-10.86H14.468c-5.121,0-9.279,4.866-9.279,10.86L-3.5,129.65c0,5.994,4.158,10.86,9.279,10.86H144.6c5.121,0,9.279-4.866,9.279-10.86Z" transform="translate(30.433 -1.5)"/><g transform="translate(0 0)"><path class="b" d="M162.567,12.36c0-5.994-4.158-10.86-9.279-10.86H17.943c-5.121,0-9.279,4.866-9.279,10.86L-3.5,129.65c0,5.994,4.158,10.86,9.279,10.86H142.862c5.121,0,11.017-6.6,11.017-12.6Z" transform="translate(3.5 -1.5)"/></g><path class="b" d="M44.456,4.641A2.941,2.941,0,0,0,41.772,1.5H-7.3A2.94,2.94,0,0,0-9.983,4.641L-13.5,38.558A2.94,2.94,0,0,0-10.817,41.7H39.26a2.94,2.94,0,0,0,2.683-3.141Z" transform="translate(96.416 79.066)"/><path class="c" d="M2.452,0H82.13L97.348,21.9c2.021,2.9.942,6.713-3.568,9.225s-9.459,4.979-14.7,7.6c-4.751,2.377-9.817,4.02-14.226,3.961,0,0-32.3.617-62.4,1.07-9.654-.134-10.277.132-11.3-2.829s5.424-4.872,13.813-7.474c3.8-1.18,10.443-3.539,13.771-4.864s2.855-4.83,1.128-6.687C19.858,21.876,2.452,0,2.452,0Z" transform="translate(57.737 139.056)"/></g></g><circle class="d" cx="49.5" cy="49.5" r="49.5" transform="translate(650.5 246)"/><rect class="e" width="280" height="250" transform="translate(480 130)"/><path class="f" d="M19.749,1V17.456H12.362a4.4,4.4,0,0,0-4.451,3.487L4,44.2H40L36.087,20.944a4.4,4.4,0,0,0-4.451-3.487H24.249V1ZM12.362,21.57H31.636l.694,4.114H11.668ZM10.974,29.8H33.024l1.731,10.285H9.242Z" transform="translate(678 272.802)"/></g></svg>