<svg width="36" height="36" viewBox="0 0 36 36" fill="none" xmlns="http://www.w3.org/2000/svg">
<path d="M29.471 28.098H6.617V8.51H29.471V28.098ZM32.735 5.245H3.353C2.92379 5.24342 2.49851 5.32678 2.10167 5.4903C1.70482 5.65382 1.34426 5.89426 1.04076 6.19776C0.737264 6.50126 0.496827 6.86182 0.333307 7.25867C0.169787 7.65551 0.0864181 8.08079 0.0880044 8.51V28.098C0.0880044 28.9639 0.431994 29.7944 1.0443 30.4067C1.65661 31.019 2.48707 31.363 3.353 31.363H32.735C33.6009 31.363 34.4314 31.019 35.0437 30.4067C35.656 29.7944 36 28.9639 36 28.098V8.51C36.0001 8.0812 35.9158 7.65657 35.7517 7.26039C35.5877 6.8642 35.3472 6.50421 35.044 6.20101C34.7408 5.8978 34.3808 5.6573 33.9846 5.49327C33.5884 5.32923 33.1638 5.24487 32.735 5.245V5.245Z"  />
</svg>
