<svg width="36" height="36" viewBox="0 0 36 36" fill="none" xmlns="http://www.w3.org/2000/svg">
<path d="M17.7559 34.802H17.6836H17.5117H17.4336L17.2578 34.7961H17.1944L16.9942 34.7854H16.9571C14.4978 34.6322 12.1015 33.9459 9.93362 32.7747C7.76576 31.6034 5.87848 29.9751 4.40237 28.0022V34.802H1.00198V17.802C1.00833 13.2953 2.80157 8.97507 5.98831 5.78833C9.17506 2.60158 13.4953 0.808347 18.002 0.801998H18.2422H18.3164H18.4903H18.5664L18.7403 0.808834H18.8076L19.0166 0.819576H19.042C21.502 0.972317 23.8998 1.6589 26.0684 2.83032C28.237 4.00173 30.1242 5.63014 31.6006 7.60376V0.801998H35.001V17.802C34.9944 22.3086 33.2014 26.629 30.0147 29.8157C26.828 33.0024 22.5077 34.7954 18.001 34.802C17.918 34.802 17.8379 34.802 17.7559 34.802ZM18 31.4016C20.6899 31.4016 23.3192 30.604 25.5557 29.1096C27.7922 27.6152 29.5351 25.4912 30.5645 23.0061C31.5938 20.521 31.8637 17.7868 31.3389 15.1487C30.8141 12.5105 29.5182 10.0878 27.6162 8.18579C25.7142 6.28379 23.2915 4.98789 20.6534 4.46313C18.0152 3.93837 15.281 4.20819 12.7959 5.23755C10.3109 6.2669 8.1868 8.00983 6.69241 10.2463C5.19803 12.4828 4.40042 15.1122 4.40042 17.802C4.39713 19.589 4.74638 21.3594 5.42874 23.011C6.1111 24.6626 7.11237 26.1625 8.37601 27.426C9.63965 28.6896 11.1404 29.691 12.792 30.3733C14.4437 31.0555 16.214 31.405 18.001 31.4016H18ZM14.5996 26.302C14.5996 25.6295 14.7993 24.9725 15.1729 24.4133C15.5465 23.8542 16.078 23.4177 16.6992 23.1604C17.3205 22.9031 18.0036 22.8358 18.6631 22.967C19.3227 23.0982 19.9288 23.4222 20.4043 23.8977C20.8798 24.3732 21.2038 24.9794 21.335 25.6389C21.4662 26.2984 21.399 26.9815 21.1416 27.6028C20.8843 28.224 20.4478 28.7555 19.8887 29.1291C19.3296 29.5027 18.6725 29.7024 18 29.7024C17.0985 29.7021 16.2341 29.3439 15.5967 28.7063C14.9593 28.0687 14.6006 27.2036 14.6006 26.302H14.5996ZM23.0996 17.802C23.0996 17.1295 23.2993 16.4725 23.6729 15.9133C24.0465 15.3542 24.578 14.9177 25.1992 14.6604C25.8205 14.4031 26.5036 14.3358 27.1631 14.467C27.8227 14.5982 28.4288 14.9222 28.9043 15.3977C29.3798 15.8732 29.7038 16.4794 29.835 17.1389C29.9662 17.7984 29.899 18.4815 29.6416 19.1028C29.3843 19.724 28.9478 20.2555 28.3887 20.6291C27.8296 21.0027 27.1725 21.2024 26.5 21.2024C25.5985 21.2021 24.7341 20.8439 24.0967 20.2063C23.4593 19.5687 23.1006 18.7036 23.1006 17.802H23.0996ZM6.09964 17.802C6.09964 17.1295 6.29929 16.4725 6.67288 15.9133C7.04648 15.3542 7.57798 14.9177 8.19925 14.6604C8.82052 14.4031 9.50358 14.3358 10.1631 14.467C10.8227 14.5982 11.4288 14.9222 11.9043 15.3977C12.3798 15.8732 12.7038 16.4794 12.835 17.1389C12.9662 17.7984 12.899 18.4815 12.6416 19.1028C12.3843 19.724 11.9478 20.2555 11.3887 20.6291C10.8296 21.0027 10.1725 21.2024 9.50003 21.2024C8.59847 21.2021 7.73412 20.8439 7.09671 20.2063C6.4593 19.5687 6.10062 18.7036 6.10062 17.802H6.09964ZM14.5996 9.302C14.5996 8.62954 14.7993 7.97245 15.1729 7.41333C15.5465 6.8542 16.078 6.41773 16.6992 6.1604C17.3205 5.90306 18.0036 5.83585 18.6631 5.96704C19.3227 6.09823 19.9288 6.4222 20.4043 6.8977C20.8798 7.3732 21.2038 7.97938 21.335 8.63891C21.4662 9.29845 21.399 9.98151 21.1416 10.6028C20.8843 11.224 20.4478 11.7555 19.8887 12.1291C19.3296 12.5027 18.6725 12.7024 18 12.7024C17.0985 12.7021 16.2341 12.3439 15.5967 11.7063C14.9593 11.0687 14.6006 10.2036 14.6006 9.302H14.5996Z"  />
</svg>
