<svg width="36" height="36" viewBox="0 0 36 36" fill="none" xmlns="http://www.w3.org/2000/svg">
<path d="M10.25 22.375H13.35V27.025H16.45V22.375H19.55V27.025H22.65V22.375H25.75V27.025H28.85V13.075H22.65V8.425H13.35V13.075H7.14999V27.025H10.25V22.375ZM6.18899 3.775H29.826C30.3097 3.77513 30.7886 3.87074 31.2353 4.05636C31.682 4.24198 32.0876 4.51395 32.4289 4.85668C32.7703 5.19941 33.0406 5.60615 33.2244 6.05357C33.4082 6.50099 33.5018 6.9803 33.5 7.464V29.551C33.5 30.0333 33.405 30.511 33.2204 30.9566C33.0358 31.4022 32.7653 31.8071 32.4242 32.1482C32.0831 32.4893 31.6782 32.7598 31.2326 32.9444C30.787 33.129 30.3093 33.224 29.827 33.224H6.18899C5.70537 33.2258 5.22615 33.1322 4.77879 32.9485C4.33143 32.7647 3.92474 32.4945 3.58202 32.1533C3.23931 31.8121 2.96732 31.4065 2.78164 30.96C2.59596 30.5134 2.50025 30.0346 2.49999 29.551V7.464C2.49853 6.97915 2.59296 6.49879 2.77784 6.05056C2.96271 5.60234 3.23439 5.19509 3.57723 4.85224C3.92008 4.5094 4.32732 4.23772 4.77555 4.05285C5.22378 3.86797 5.70413 3.77355 6.18899 3.775V3.775Z"  />
</svg>
