<svg width="36" height="36" viewBox="0 0 36 36" fill="none" xmlns="http://www.w3.org/2000/svg">
<g clip-path="url(#clip0)">
<path fill-rule="evenodd" clip-rule="evenodd" d="M21.337 7.985C22.4522 7.34536 23.7143 7.00598 25 7C26.179 7.03335 27.3371 7.31942 28.396 7.83888C29.4549 8.35833 30.39 9.09906 31.138 10.011C33.7528 13.2584 35.1223 17.3326 35 21.5C35.1223 25.6674 33.7528 29.7416 31.138 32.989C30.39 33.9009 29.4549 34.6417 28.396 35.1611C27.3371 35.6806 26.179 35.9666 25 36C23.7143 35.994 22.4522 35.6546 21.337 35.015C22.2944 34.492 23.1615 33.8184 23.905 33.02C23.947 32.976 23.988 32.931 24.03 32.885C24.3476 32.9615 24.6732 33.0002 25 33C25.7557 32.9631 26.4948 32.7648 27.1675 32.4184C27.8402 32.0721 28.4309 31.5857 28.9 30.992C31.0276 28.2964 32.1264 24.9317 32 21.5C32.1264 18.0683 31.0276 14.7036 28.9 12.008C28.4309 11.4143 27.8402 10.9279 27.1675 10.5816C26.4948 10.2352 25.7557 10.0369 25 10C24.6732 9.99985 24.3476 10.0384 24.03 10.115C23.988 10.069 23.947 10.024 23.905 9.98C23.1615 9.18163 22.2944 8.50803 21.337 7.985Z"  />
<path fill-rule="evenodd" clip-rule="evenodd" d="M14 7.814C15.0899 7.28093 16.2867 7.00259 17.5 7C18.7156 7.02729 19.9123 7.30618 21.0147 7.81908C22.117 8.33198 23.1012 9.06775 23.905 9.98C26.6563 13.1764 28.1165 17.2841 28 21.5C28.1165 25.7159 26.6563 29.8236 23.905 33.02C23.1012 33.9322 22.117 34.668 21.0147 35.1809C19.9123 35.6938 18.7156 35.9727 17.5 36C16.2867 35.9974 15.0899 35.7191 14 35.186C15.0924 34.6473 16.0769 33.9132 16.905 33.02L16.953 32.969C17.1346 32.9894 17.3172 32.9998 17.5 33C18.3065 32.9697 19.098 32.773 19.8247 32.4221C20.5515 32.0712 21.1978 31.5737 21.723 30.961C23.9518 28.3234 25.1199 24.9511 25 21.5C25.1199 18.0489 23.9518 14.6766 21.723 12.039C21.1978 11.4263 20.5515 10.9288 19.8247 10.5779C19.098 10.227 18.3065 10.0303 17.5 10C17.3172 10.0002 17.1346 10.0106 16.953 10.031L16.905 9.98C16.0769 9.08681 15.0924 8.35272 14 7.814Z"  />
<path fill-rule="evenodd" clip-rule="evenodd" d="M10.5 7C9.28445 7.02729 8.08774 7.30618 6.98535 7.81908C5.88297 8.33198 4.89883 9.06775 4.09501 9.98C1.34364 13.1764 -0.116535 17.2841 5.15534e-06 21.5C-0.116535 25.7159 1.34364 29.8236 4.09501 33.02C4.89883 33.9322 5.88297 34.668 6.98535 35.1809C8.08774 35.6938 9.28445 35.9727 10.5 36C11.7156 35.9727 12.9123 35.6938 14.0147 35.1809C15.117 34.668 16.1012 33.9322 16.905 33.02C19.6564 29.8236 21.1165 25.7159 21 21.5C21.1165 17.2841 19.6564 13.1764 16.905 9.98C16.1012 9.06775 15.117 8.33198 14.0147 7.81908C12.9123 7.30618 11.7156 7.02729 10.5 7ZM10.5 10C11.3065 10.0303 12.098 10.227 12.8247 10.5779C13.5515 10.9288 14.1978 11.4263 14.723 12.039C16.9518 14.6766 18.1199 18.0489 18 21.5C18.1199 24.9511 16.9518 28.3234 14.723 30.961C14.1978 31.5737 13.5515 32.0712 12.8247 32.4221C12.098 32.773 11.3065 32.9697 10.5 33C9.69354 32.9697 8.90205 32.773 8.17529 32.4221C7.44854 32.0712 6.80223 31.5737 6.27701 30.961C4.04818 28.3234 2.88012 24.9511 3.00001 21.5C2.88012 18.0489 4.04818 14.6766 6.27701 12.039C6.80223 11.4263 7.44854 10.9288 8.17529 10.5779C8.90205 10.227 9.69354 10.0303 10.5 10Z"  />
<path d="M9.5 26C10.8807 26 12 23.9853 12 21.5C12 19.0147 10.8807 17 9.5 17C8.11929 17 7 19.0147 7 21.5C7 23.9853 8.11929 26 9.5 26Z"  />
<path fill-rule="evenodd" clip-rule="evenodd" d="M9.06904 10.222L33.98 3.52202C34.1704 3.47087 34.3487 3.38272 34.505 3.2626C34.6612 3.14248 34.7923 2.99275 34.8906 2.82196C34.989 2.65118 35.0527 2.46269 35.0782 2.26726C35.1036 2.07184 35.0903 1.87331 35.039 1.68302C34.9879 1.4927 34.8997 1.31432 34.7796 1.15808C34.6595 1.00184 34.5098 0.870796 34.339 0.772449C34.1682 0.674101 33.9797 0.610372 33.7843 0.584904C33.5889 0.559436 33.3903 0.572729 33.2 0.624022L8.28904 7.32402C8.09871 7.37517 7.92033 7.46332 7.76409 7.58344C7.60785 7.70356 7.47681 7.85329 7.37847 8.02408C7.28012 8.19486 7.21639 8.38335 7.19092 8.57878C7.16545 8.77421 7.17875 8.97273 7.23004 9.16302C7.28119 9.35335 7.36934 9.53173 7.48946 9.68797C7.60958 9.84421 7.75931 9.97525 7.9301 10.0736C8.10088 10.1719 8.28937 10.2357 8.4848 10.2611C8.68022 10.2866 8.87875 10.2733 9.06904 10.222Z"  />
</g>
<defs>
<clipPath id="clip0">
<rect width="36" height="36" fill="white"/>
</clipPath>
</defs>
</svg>
