<svg width="36" height="36" viewBox="0 0 36 36" fill="none" xmlns="http://www.w3.org/2000/svg">
<path d="M9.816 1C9.06915 1 8.35289 1.29668 7.82479 1.82479C7.29668 2.35289 7 3.06915 7 3.816V26.34C7 27.0868 7.29668 27.8031 7.82479 28.3312C8.35289 28.8593 9.06915 29.156 9.816 29.156H26.709C27.4558 29.156 28.1721 28.8593 28.7002 28.3312C29.2283 27.8031 29.525 27.0868 29.525 26.34V9.447L21.078 1H9.816ZM9.816 3.816H19.67V10.855H26.709V26.34H9.816V3.816ZM9.631 31.947V35.763H13.447V31.947H9.631ZM16.262 31.947V35.763H20.078V31.947H16.262ZM22.893 31.947V35.763H26.709V31.947H22.893Z"  />
</svg>
