<svg width="36" height="36" viewBox="0 0 36 36" fill="none" xmlns="http://www.w3.org/2000/svg">
<path d="M7.40699 14.166L3.89499 27.543V10.822H32.322C32.322 10.3829 32.2355 9.94802 32.0674 9.54231C31.8994 9.13659 31.6531 8.76795 31.3426 8.45743C31.032 8.14692 30.6634 7.9006 30.2577 7.73255C29.852 7.56449 29.4171 7.478 28.978 7.478H17.278L13.928 4.133H3.89499C3.00811 4.133 2.15755 4.48531 1.53043 5.11243C0.903308 5.73956 0.550995 6.59012 0.550995 7.477V27.543C0.550995 28.4299 0.903308 29.2804 1.53043 29.9076C2.15755 30.5347 3.00811 30.887 3.89499 30.887H28.977C29.7129 30.8943 30.4292 30.6495 31.0066 30.1932C31.5841 29.7369 31.9879 29.0967 32.151 28.379L35.997 14.166H7.40699ZM28.977 27.543H7.24L9.915 17.51H31.651L28.977 27.543Z"  />
</svg>
