<svg width="36" height="36" viewBox="0 0 36 36" fill="none" xmlns="http://www.w3.org/2000/svg">
<path d="M16.271 12.824H19.722V16.271H16.271V12.824ZM12.824 16.271H16.271V19.722H12.824V16.271ZM19.724 16.271H23.175V19.722H19.726V16.271H19.724ZM23.177 12.82H26.628V16.271H23.177V12.824V12.82ZM9.37701 12.824H12.828V16.271H9.37101V12.824H9.37701ZM30.079 2.471H5.92201C5.00675 2.471 4.12897 2.83459 3.48178 3.48178C2.83459 4.12896 2.47101 5.00674 2.47101 5.922V30.079C2.47101 30.9943 2.83459 31.872 3.48178 32.5192C3.80224 32.8397 4.18267 33.0939 4.60137 33.2673C5.02006 33.4407 5.46882 33.53 5.92201 33.53H30.079C30.9943 33.53 31.872 33.1664 32.5192 32.5192C33.1664 31.872 33.53 30.9943 33.53 30.079V5.922C33.53 5.00674 33.1664 4.12896 32.5192 3.48178C31.872 2.83459 30.9943 2.471 30.079 2.471V2.471ZM12.824 28.353H9.37101V24.902H12.822V28.353H12.824ZM19.722 28.353H16.271V24.902H19.722V28.353ZM26.622 28.353H23.177V24.902H26.628V28.353H26.622ZM30.079 16.271H26.628V19.722H30.079V23.173H26.628V19.726H23.177V23.177H19.726V19.726H16.271V23.177H12.824V19.726H9.37101V23.177H5.92201V19.726H9.37101V16.271H5.92201V5.922H30.079V16.271Z"  />
</svg>
