<svg width="36" height="36" viewBox="0 0 36 36" fill="none" xmlns="http://www.w3.org/2000/svg">
<path d="M17.7644 18.802C17.8445 18.802 17.9229 18.802 18.004 18.7874C30.198 18.7874 35.01 8.39335 35.004 1.78735C35.0113 1.18875 34.9884 0.592257 34.9361 0H31.4833C31.8001 2.37018 31.4865 4.78743 30.5675 7.0061C29.5381 9.49118 27.7952 11.6152 25.5587 13.1096C23.3222 14.604 20.6928 15.4016 18.003 15.4016C16.216 15.405 14.4466 15.0555 12.795 14.3733C11.1434 13.6911 9.64264 12.6896 8.379 11.426C7.11536 10.1625 6.11409 8.66257 5.43173 7.01099C4.74937 5.35941 4.40012 3.58899 4.40341 1.802C4.40341 1.19701 4.44376 0.595086 4.52331 0H1.10312C1.03886 0.595782 1.00583 1.19721 1.00497 1.802V36H4.40536V12.0022C5.88147 13.9751 7.76875 15.6034 9.93661 16.7747C12.1045 17.9459 14.5008 18.6322 16.9601 18.7854H16.9972L17.1974 18.7961H17.2608L17.4366 18.802H17.7644Z"  />
<path d="M6.61984 0C6.28235 0.539805 6.10263 1.16399 6.10263 1.802C6.10263 2.70357 6.46229 3.5687 7.0997 4.2063C7.73711 4.84389 8.60146 5.20213 9.50302 5.20239C10.1755 5.20239 10.8326 5.00275 11.3917 4.62915C11.9508 4.25555 12.3873 3.72405 12.6446 3.10278C12.902 2.48151 12.9692 1.79845 12.838 1.13892C12.7573 0.733067 12.6035 0.347423 12.3864 0H6.61984Z"  />
<path d="M23.6198 0H29.3864C29.6035 0.347423 29.7573 0.733067 29.838 1.13892C29.9692 1.79845 29.902 2.48151 29.6446 3.10278C29.3873 3.72405 28.9508 4.25555 28.3917 4.62915C27.8326 5.00275 27.1755 5.20239 26.503 5.20239C25.6015 5.20213 24.7371 4.84389 24.0997 4.2063C23.4623 3.5687 23.1036 2.70357 23.1036 1.802C23.1036 1.16399 23.2824 0.539805 23.6198 0Z"  />
<path d="M15.1759 8.41333C14.8023 8.97246 14.6026 9.62955 14.6026 10.302C14.6026 11.2036 14.9623 12.0687 15.5997 12.7063C16.2371 13.3439 17.1015 13.7021 18.003 13.7024C18.6755 13.7024 19.3326 13.5027 19.8917 13.1292C20.4508 12.7556 20.8873 12.2241 21.1446 11.6028C21.402 10.9815 21.4692 10.2985 21.338 9.63892C21.2068 8.97938 20.8828 8.3732 20.4073 7.89771C19.9318 7.42221 19.3256 7.09823 18.6661 6.96704C18.0066 6.83585 17.3235 6.90306 16.7022 7.1604C16.081 7.41774 15.5495 7.8542 15.1759 8.41333Z"  />
</svg>
