<svg width="36" height="36" viewBox="0 0 36 36" fill="none" xmlns="http://www.w3.org/2000/svg">
<path d="M15.113 9.571C11.7957 9.571 8.61422 10.8888 6.26852 13.2345C3.92281 15.5802 2.60501 18.7617 2.60501 22.079C2.60501 25.3963 3.92281 28.5778 6.26852 30.9235C8.61422 33.2692 11.7957 34.587 15.113 34.587H21.848V30.739H15.113C12.8164 30.739 10.6138 29.8267 8.98982 28.2027C7.36585 26.5787 6.45351 24.3761 6.45351 22.0795C6.45351 19.7829 7.36585 17.5803 8.98982 15.9563C10.6138 14.3323 12.8164 13.42 15.113 13.42H26.024L20.097 19.366L22.81 22.079L33.394 11.496L22.81 0.912003L20.078 3.625L26.024 9.571H15.113V9.571ZM29.545 30.739H25.697V34.588H29.545V30.739Z"  />
</svg>
