<svg width="36" height="36" viewBox="0 0 36 36" fill="none" xmlns="http://www.w3.org/2000/svg">
<g clip-path="url(#clip0)">
<path d="M17.9999 36.0003C13.55 35.9947 9.2603 34.3363 5.96381 31.347C2.66733 28.3578 0.598705 24.2508 0.159125 19.8226C-0.280456 15.3944 0.940435 10.9612 3.58491 7.38218C6.22938 3.80319 10.1096 1.33385 14.4716 0.453469C18.8337 -0.426908 23.3667 0.344371 27.1923 2.61753C31.0179 4.89069 33.8634 8.50315 35.1757 12.7552C36.4881 17.0073 36.1739 21.5954 34.2949 25.6292C32.4158 29.6631 29.1053 32.8551 25.0058 34.5863C22.7894 35.5244 20.4066 36.0054 17.9999 36.0003ZM27.5068 14.3451C26.8799 14.3449 26.2673 14.5311 25.746 14.8793C25.2247 15.2274 24.818 15.722 24.5781 16.3011C24.3381 16.8802 24.2752 17.5174 24.3974 18.1322C24.5197 18.747 24.8223 19.312 25.2656 19.7552C25.7088 20.1985 26.2728 20.5002 26.8876 20.6224C27.5025 20.7447 28.1396 20.6817 28.7187 20.4417C29.2978 20.2018 29.7934 19.796 30.1415 19.2748C30.4897 18.7535 30.6749 18.1399 30.6747 17.513C30.6742 16.6729 30.341 15.8679 29.747 15.2738C29.153 14.6796 28.3469 14.3459 27.5068 14.3451ZM17.9999 14.3451C17.3731 14.3449 16.7605 14.5311 16.2392 14.8793C15.7179 15.2274 15.3112 15.722 15.0712 16.3011C14.8313 16.8802 14.7683 17.5174 14.8906 18.1322C15.0128 18.747 15.3145 19.312 15.7578 19.7552C16.201 20.1985 16.766 20.5002 17.3808 20.6224C17.9956 20.7447 18.6328 20.6817 19.2119 20.4417C19.791 20.2018 20.2866 19.796 20.6347 19.2748C20.9828 18.7535 21.1681 18.1399 21.1679 17.513C21.1669 16.6731 20.8331 15.8678 20.2392 15.2738C19.6453 14.6797 18.8399 14.3464 17.9999 14.3451ZM8.4892 14.3451C7.86252 14.3457 7.2502 14.5326 6.72944 14.8812C6.20867 15.2298 5.80279 15.7249 5.56342 16.3041C5.32406 16.8832 5.26201 17.5206 5.38471 18.1351C5.50741 18.7497 5.80946 19.3134 6.25287 19.7562C6.69629 20.1991 7.26024 20.5005 7.87495 20.6224C8.48965 20.7443 9.12713 20.6818 9.706 20.4417C10.2849 20.2017 10.7799 19.795 11.1279 19.2738C11.4758 18.7526 11.6613 18.1397 11.6611 17.513C11.6605 16.6722 11.3262 15.8661 10.7314 15.2718C10.1366 14.6776 9.33003 14.3448 8.4892 14.3451Z"  />
</g>
<defs>
<clipPath id="clip0">
<rect width="36" height="36" fill="white"/>
</clipPath>
</defs>
</svg>
