<svg width="36" height="36" viewBox="0 0 36 36" fill="none" xmlns="http://www.w3.org/2000/svg">
<path d="M11.552 14.736L23.507 26.691H8.96698C8.1755 26.7012 7.38987 26.5542 6.65567 26.2584C5.92147 25.9626 5.25332 25.5239 4.69001 24.9678C4.12669 24.4118 3.67942 23.7493 3.37414 23.019C3.06887 22.2887 2.91167 21.505 2.91167 20.7135C2.91167 19.922 3.06887 19.1383 3.37414 18.408C3.67942 17.6777 4.12669 17.0152 4.69001 16.4592C5.25332 15.9031 5.92147 15.4644 6.65567 15.1686C7.38987 14.8728 8.1755 14.7258 8.96698 14.736H11.552ZM4.48298 7.669L8.59298 11.749C6.25311 11.8537 4.04695 12.8693 2.44591 14.5789C0.844877 16.2884 -0.0240575 18.5564 0.0247797 20.8981C0.073617 23.2398 1.03635 25.4695 2.70727 27.1109C4.37819 28.7522 6.62478 29.675 8.96698 29.682H26.5L29.485 32.669L31.385 30.769L6.38498 5.769L4.48298 7.669ZM28.921 14.78C28.4146 12.2388 27.0427 9.95182 25.0391 8.30873C23.0355 6.66563 20.5242 5.76808 17.933 5.769C15.8129 5.75917 13.7358 6.36653 11.955 7.517L14.122 9.699C15.3741 9.04146 16.7748 8.71844 18.1885 8.76123C19.6021 8.80403 20.9807 9.21118 22.1908 9.94325C23.4008 10.6753 24.4013 11.7075 25.0953 12.9398C25.7893 14.1721 26.1533 15.5627 26.152 16.977V17.724H28.394C29.3893 17.7208 30.3573 18.0497 31.1445 18.6587C31.9318 19.2677 32.4934 20.1219 32.7405 21.0861C32.9875 22.0503 32.9058 23.0694 32.5083 23.9819C32.1108 24.8944 31.4202 25.6482 30.546 26.124L32.713 28.291C33.9708 27.4041 34.9229 26.1492 35.4379 24.6988C35.953 23.2485 36.0058 21.6742 35.5891 20.1926C35.1723 18.711 34.3066 17.3951 33.111 16.4259C31.9154 15.4568 30.4487 14.8821 28.913 14.781L28.921 14.78Z"  />
</svg>
