<svg width="36" height="36" viewBox="0 0 36 36" fill="none" xmlns="http://www.w3.org/2000/svg">
<g clip-path="url(#clip0)">
<path d="M17.9988 35.3169C14.445 35.3171 10.9774 34.2242 8.06617 32.186C5.15494 30.1478 2.94103 27.2627 1.72535 23.9233C0.509681 20.5839 0.350676 16.9518 1.27028 13.519C2.18987 10.0862 4.14373 7.01932 6.86598 4.73483L15.9451 13.813C15.7839 14.036 15.5718 14.2177 15.3269 14.3432C15.082 14.4687 14.8111 14.5341 14.5359 14.5346H11.073V17.9975H20.1306L23.1951 21.063V24.9272H24.9275C25.6601 24.9286 26.3735 25.1624 26.9646 25.5952C27.5557 26.0279 27.994 26.6375 28.2166 27.3354C28.3976 27.1354 28.5927 26.9106 28.7947 26.6606L31.2664 29.1323C29.6418 31.0707 27.6114 32.6291 25.3191 33.6977C23.0268 34.7664 20.5279 35.3189 17.9988 35.3169ZM4.50953 14.8999C4.07254 16.7858 4.0374 18.7424 4.40504 20.643C4.77269 22.5437 5.53555 24.3461 6.6443 25.9331C7.75304 27.52 9.18235 28.856 10.8406 29.8549C12.4988 30.8539 14.3491 31.4935 16.2703 31.7319V28.3891C15.3516 28.3886 14.47 28.0237 13.8201 27.3745C13.1701 26.7253 12.8041 25.8449 12.8025 24.9262V23.1928L4.50953 14.8999ZM33.0095 26.6391L30.4451 24.0727C31.5217 21.8733 31.995 19.4271 31.8162 16.9848C31.6373 14.5425 30.8121 12.1924 29.4265 10.1733C27.8874 7.92843 25.7194 6.18882 23.1941 5.17331V5.88229C23.193 6.80041 22.8277 7.68035 22.1785 8.32956C21.5293 8.97876 20.6493 9.34412 19.7312 9.34518H15.7117L9.3611 2.99264C12.6622 1.09499 16.4966 0.337766 20.2713 0.838345C24.0459 1.33892 27.5506 3.06969 30.2429 5.76217C32.9353 8.45466 34.6654 11.9592 35.1658 15.7339C35.6662 19.5085 34.9083 23.343 33.0105 26.644L33.0095 26.6391Z"  />
<path d="M35.355 33.234L2.121 0L-0.000320435 2.12132L33.2337 35.3553L35.355 33.234Z"  />
</g>
<defs>
<clipPath id="clip0">
<rect width="36" height="36" fill="white"/>
</clipPath>
</defs>
</svg>
