<svg width="36" height="36" viewBox="0 0 36 36" fill="none" xmlns="http://www.w3.org/2000/svg">
<path d="M18.2401 17.802C18.16 17.802 18.0816 17.802 18.0004 17.8167C5.80644 17.8167 0.994442 28.2107 1.00044 34.8167C0.995616 35.2122 1.00397 35.6069 1.0253 36H4.45412C4.26193 33.8252 4.59591 31.6284 5.43696 29.5979C6.46632 27.1128 8.20925 24.9888 10.4458 23.4944C12.6823 22 15.3116 21.2024 18.0014 21.2024H18.0043C19.791 21.1995 21.5602 21.5492 23.2114 22.2317C24.8625 22.9142 26.3632 23.9155 27.6264 25.179C28.8896 26.4424 29.8906 27.9427 30.5727 29.594C31.2548 31.2453 31.6043 33.0154 31.601 34.802C31.601 35.203 31.5833 35.6027 31.5482 36H34.9556C34.9842 35.6026 34.9989 35.203 34.9995 34.802V0H31.5991V24.6018C30.123 22.6289 28.2357 21.0006 26.0678 19.8293C23.9 18.6581 21.5036 17.9718 19.0444 17.8186H19.0073L18.8071 17.8079H18.7436L18.5678 17.802H18.2401Z"  />
<path d="M29.6835 36C29.8271 35.619 29.9018 35.2134 29.9018 34.802H29.9047C29.9047 34.3553 29.816 33.9129 29.645 33.5002C29.4739 33.0875 29.2237 32.7125 28.9077 32.3967C28.5916 32.081 28.216 31.8311 27.8032 31.6604C27.3903 31.4897 26.9482 31.4012 26.5014 31.4016C25.829 31.4016 25.1719 31.6013 24.6127 31.9749C24.0536 32.3484 23.6172 32.88 23.3598 33.5012C23.1025 34.1225 23.0353 34.8056 23.1665 35.4651C23.2029 35.648 23.2541 35.8269 23.3193 36H29.6835Z"  />
<path d="M12.6835 36C12.8271 35.619 12.9018 35.2134 12.9018 34.802H12.9047C12.9047 34.3553 12.816 33.9129 12.645 33.5002C12.4739 33.0875 12.2237 32.7125 11.9077 32.3967C11.5916 32.081 11.216 31.8311 10.8032 31.6604C10.3903 31.4897 9.94816 31.4012 9.50142 31.4016C8.82896 31.4016 8.17187 31.6013 7.61275 31.9749C7.05362 32.3484 6.61715 32.88 6.35982 33.5012C6.10248 34.1225 6.03527 34.8056 6.16646 35.4651C6.20285 35.648 6.25408 35.8269 6.31926 36H12.6835Z"  />
<path d="M20.8286 28.1907C21.2022 27.6315 21.4018 26.9745 21.4018 26.302H21.4047C21.4047 25.8553 21.316 25.4129 21.145 25.0002C20.9739 24.5875 20.7237 24.2125 20.4077 23.8967C20.0916 23.581 19.716 23.3311 19.3032 23.1604C18.8903 22.9897 18.4482 22.9012 18.0014 22.9016C17.329 22.9016 16.6719 23.1013 16.1127 23.4749C15.5536 23.8484 15.1172 24.38 14.8598 25.0012C14.6025 25.6225 14.5353 26.3056 14.6665 26.9651C14.7976 27.6246 15.1216 28.2308 15.5971 28.7063C16.0726 29.1818 16.6788 29.5058 17.3383 29.637C17.9979 29.7682 18.6809 29.7009 19.3022 29.4436C19.9235 29.1863 20.455 28.7498 20.8286 28.1907Z"  />
</svg>
