<svg width="37" height="36" viewBox="0 0 37 36" fill="none" xmlns="http://www.w3.org/2000/svg">
<g clip-path="url(#clip0)">
<path d="M3.88102 32.5718H3.74724C3.20661 32.5738 2.67167 32.4586 2.17985 32.2341C1.68804 32.0096 1.25082 31.6812 0.898114 31.2715C0.545411 30.8618 0.285711 30.3806 0.136884 29.8608C-0.0119432 29.3411 -0.046567 28.7953 0.0358094 28.261L3.11296 8.44897C3.26794 7.52353 3.73313 6.67811 4.43181 6.05176C5.13048 5.4254 6.02136 5.0553 6.95817 5.00195C26.2812 5.00195 26.687 5.00195 30.047 5.00195C31.6383 5.00195 33.1645 5.63406 34.2897 6.75928C35.4149 7.8845 36.047 9.41065 36.047 11.002V26.574C36.047 28.1653 35.4149 29.6912 34.2897 30.8164C33.1645 31.9416 31.6383 32.574 30.047 32.574C30.047 32.574 21.455 32.5718 3.88102 32.5718ZM30.047 29.5779C30.8427 29.5779 31.6055 29.2618 32.1681 28.6992C32.7307 28.1366 33.047 27.3735 33.047 26.5779V11.0049C33.0475 10.2263 32.7449 9.47803 32.2038 8.91821C31.6626 8.35839 30.9253 8.03084 30.1471 8.00488V7.97778C30.1211 7.48978 30.2331 7.88586 30.0251 9.30786L26.9489 28.2598C26.8849 28.7071 26.7789 29.1476 26.632 29.575L30.047 29.5779ZM6.08024 8.88696V8.91089L3.01091 28.699C2.99024 28.9414 3.06524 29.1821 3.21989 29.3699C3.28625 29.4431 3.36906 29.4996 3.46159 29.5344C3.55412 29.5692 3.65393 29.5812 3.75212 29.5698H22.1462C23.1372 29.5698 23.401 29.2699 23.487 29.1699C23.7714 28.7716 23.9441 28.3044 23.987 27.8169V27.7788L27.0602 9.13696C27.138 8.85251 27.138 8.55227 27.0602 8.26782C27.0005 8.16868 26.9122 8.08959 26.8073 8.04077C26.7024 7.99195 26.5852 7.97571 26.4709 7.9939C26.4119 7.9939 26.3489 7.9939 26.2839 7.9939H6.9572C6.74342 8.04817 6.54835 8.16011 6.39372 8.31738C6.23909 8.47465 6.13089 8.6723 6.08024 8.88696Z"  />
<path d="M12.0655 19.5586H22.7375L21.4875 26.8236H10.6465L12.0655 19.5586Z"  />
</g>
<defs>
<clipPath id="clip0">
<rect width="36.047" height="36" fill="white"/>
</clipPath>
</defs>
</svg>
