<svg width="36" height="36" viewBox="0 0 36 36" fill="none" xmlns="http://www.w3.org/2000/svg">
<path fill-rule="evenodd" clip-rule="evenodd" d="M4 6C3.44772 6 3 6.44772 3 7V32C3 32.5523 3.44772 33 4 33H32C32.5523 33 33 32.5523 33 32V7C33 6.44772 32.5523 6 32 6H4ZM0 7C0 4.79086 1.79086 3 4 3H32C34.2091 3 36 4.79086 36 7V32C36 34.2091 34.2091 36 32 36H4C1.79086 36 0 34.2091 0 32V7Z"  />
<path fill-rule="evenodd" clip-rule="evenodd" d="M19.3416 14.8292C19.7121 15.5701 19.4118 16.4712 18.6708 16.8416L10.6708 20.8416C9.92985 21.2121 9.02884 20.9118 8.65836 20.1708C8.28787 19.4299 8.58821 18.5288 9.32918 18.1584L17.3292 14.1584C18.0701 13.7879 18.9712 14.0882 19.3416 14.8292Z"  />
<path fill-rule="evenodd" clip-rule="evenodd" d="M16.6584 14.8292C17.0288 14.0882 17.9299 13.7879 18.6708 14.1584L26.6708 18.1584C27.4118 18.5288 27.7121 19.4299 27.3416 20.1708C26.9712 20.9118 26.0701 21.2121 25.3292 20.8416L17.3292 16.8416C16.5882 16.4712 16.2879 15.5701 16.6584 14.8292Z"  />
<path fill-rule="evenodd" clip-rule="evenodd" d="M8.65836 18.8292C9.02884 18.0882 9.92985 17.7879 10.6708 18.1584L18.6708 22.1584C19.4118 22.5288 19.7121 23.4299 19.3416 24.1708C18.9712 24.9118 18.0701 25.2121 17.3292 24.8416L9.32918 20.8416C8.58821 20.4712 8.28787 19.5701 8.65836 18.8292Z"  />
<path fill-rule="evenodd" clip-rule="evenodd" d="M27.3416 18.8292C27.7121 19.5701 27.4118 20.4712 26.6708 20.8416L18.6708 24.8416C17.9299 25.2121 17.0288 24.9118 16.6584 24.1708C16.2879 23.4299 16.5882 22.5288 17.3292 22.1584L25.3292 18.1584C26.0701 17.7879 26.9712 18.0882 27.3416 18.8292Z"  />
<path fill-rule="evenodd" clip-rule="evenodd" d="M26 18C26.8284 18 27.5 18.6716 27.5 19.5V30.5C27.5 31.3284 26.8284 32 26 32C25.1716 32 24.5 31.3284 24.5 30.5V19.5C24.5 18.6716 25.1716 18 26 18Z"  />
<path fill-rule="evenodd" clip-rule="evenodd" d="M10 18C10.8284 18 11.5 18.6716 11.5 19.5V30.5C11.5 31.3284 10.8284 32 10 32C9.17157 32 8.5 31.3284 8.5 30.5V19.5C8.5 18.6716 9.17157 18 10 18Z"  />
<path fill-rule="evenodd" clip-rule="evenodd" d="M18 22C18.8284 22 19.5 22.6716 19.5 23.5V30.5C19.5 31.3284 18.8284 32 18 32C17.1716 32 16.5 31.3284 16.5 30.5V23.5C16.5 22.6716 17.1716 22 18 22Z"  />
<path fill-rule="evenodd" clip-rule="evenodd" d="M0.5 31.5C0.5 30.3954 1.39543 29.5 2.5 29.5H33.5C34.6046 29.5 35.5 30.3954 35.5 31.5C35.5 32.6046 34.6046 33.5 33.5 33.5H2.5C1.39543 33.5 0.5 32.6046 0.5 31.5Z"  />
<path d="M14 0H11C9.89543 0 9 0.89543 9 2V9C9 10.1046 9.89543 11 11 11H14C15.1046 11 16 10.1046 16 9V2C16 0.89543 15.1046 0 14 0Z"  />
</svg>
