<svg width="36" height="36" viewBox="0 0 36 36" fill="none" xmlns="http://www.w3.org/2000/svg">
<path d="M7.46201 14C6.76741 14 6.0884 14.206 5.51085 14.5919C4.93331 14.9778 4.48316 15.5263 4.21735 16.168C3.95153 16.8097 3.88198 17.5159 4.0175 18.1972C4.15301 18.8784 4.48749 19.5042 4.97865 19.9954C5.46982 20.4865 6.0956 20.821 6.77686 20.9565C7.45812 21.092 8.16426 21.0225 8.806 20.7567C9.44773 20.4908 9.99623 20.0407 10.3821 19.4632C10.768 18.8856 10.974 18.2066 10.974 17.512C10.9711 16.5815 10.6002 15.6898 9.94217 15.0318C9.28417 14.3738 8.39256 14.0029 7.46201 14V14ZM28.535 14C27.8405 14.0006 27.1618 14.2071 26.5847 14.5933C26.0075 14.9796 25.5578 15.5283 25.2925 16.1701C25.0271 16.8119 24.958 17.5179 25.0939 18.199C25.2297 18.8801 25.5644 19.5056 26.0557 19.9964C26.547 20.4873 27.1728 20.8215 27.854 20.9567C28.5351 21.092 29.2411 21.0223 29.8827 20.7564C30.5242 20.4905 31.0726 20.0403 31.4583 19.4629C31.8441 18.8854 32.05 18.2065 32.05 17.512C32.0471 16.5809 31.6758 15.6889 31.0171 15.0308C30.3585 14.3727 29.4661 14.0021 28.535 14V14ZM17.999 14C17.3044 14 16.6254 14.206 16.0479 14.5919C15.4703 14.9778 15.0202 15.5263 14.7543 16.168C14.4885 16.8097 14.419 17.5159 14.5545 18.1972C14.69 18.8784 15.0245 19.5042 15.5157 19.9954C16.0068 20.4865 16.6326 20.821 17.3139 20.9565C17.9951 21.092 18.7013 21.0225 19.343 20.7567C19.9847 20.4908 20.5332 20.0407 20.9191 19.4632C21.305 18.8856 21.511 18.2066 21.511 17.512C21.5081 16.5815 21.1372 15.6898 20.4792 15.0318C19.8212 14.3738 18.9296 14.0029 17.999 14Z"  />
</svg>
