<svg width="36" height="36" viewBox="0 0 36 36" fill="none" xmlns="http://www.w3.org/2000/svg">
<path d="M26.7822 28.5009H22.9512C22.9442 28.3659 22.9414 28.228 22.9414 28.078C22.9455 26.9397 22.7239 25.8121 22.29 24.7597C21.8562 23.7072 21.2182 22.7509 20.4131 21.9462C19.608 21.1414 18.6513 20.5036 17.5986 20.0702C16.546 19.6368 15.4186 19.4162 14.2803 19.4208H7.36914L13.2979 25.3671L10.583 28.078L0 17.496L10.583 6.91298L13.3154 9.62392L7.36914 15.5702H14.2803C15.9231 15.5692 17.5494 15.8922 19.0674 16.5204C20.5854 17.1486 21.9653 18.0697 23.127 19.2313C24.2886 20.393 25.2097 21.7719 25.8379 23.2899C26.4661 24.8079 26.7891 26.4351 26.7881 28.078C26.7881 28.223 26.7882 28.3659 26.7822 28.5009Z"  />
<path d="M35.7812 28.5009H31.9521C31.9441 28.3379 31.9414 28.201 31.9414 28.079C31.9468 26.9405 31.7256 25.8124 31.292 24.7597C30.8584 23.7069 30.2207 22.7507 29.415 21.9462C29.107 21.6382 26.9974 17.3109 25.6504 15.7919C28.5039 16.3447 31.0759 17.8733 32.9258 20.1152C34.7757 22.357 35.788 25.1725 35.7891 28.079C35.7891 28.215 35.7893 28.3501 35.7812 28.4911V28.5009Z"  />
</svg>
