<svg width="36" height="36" viewBox="0 0 36 36" fill="none" xmlns="http://www.w3.org/2000/svg">
<g clip-path="url(#clip0)">
<path d="M18 36C13.2261 36 8.64773 34.1036 5.27208 30.7279C1.89642 27.3523 0 22.7739 0 18C0 13.2261 1.89642 8.64773 5.27208 5.27208C8.64773 1.89642 13.2261 0 18 0C27.9 0 36 7.2 36 16.2C36 19.0643 34.8621 21.8114 32.8368 23.8368C30.8114 25.8621 28.0643 27 25.2 27H21.96C21.8399 26.9927 21.7196 27.011 21.6071 27.0536C21.4946 27.0963 21.3925 27.1623 21.3074 27.2474C21.2223 27.3325 21.1563 27.4346 21.1136 27.5471C21.071 27.6596 21.0527 27.7799 21.06 27.9C21.06 28.08 21.24 28.26 21.24 28.44C21.9379 29.3073 22.319 30.3868 22.32 31.5C22.3623 32.0865 22.2809 32.6753 22.0812 33.2284C21.8815 33.7815 21.5679 34.2865 21.1607 34.7107C20.7535 35.1349 20.2617 35.4688 19.7172 35.6909C19.1728 35.913 18.5877 36.0183 18 36ZM18 3.6C14.1809 3.6 10.5182 5.11714 7.81766 7.81766C5.11714 10.5182 3.6 14.1809 3.6 18C3.6 21.8191 5.11714 25.4818 7.81766 28.1823C10.5182 30.8829 14.1809 32.4 18 32.4C18.1201 32.4073 18.2404 32.389 18.3529 32.3464C18.4654 32.3037 18.5675 32.2377 18.6526 32.1526C18.7377 32.0675 18.8037 31.9654 18.8464 31.8529C18.889 31.7404 18.9073 31.6201 18.9 31.5C18.9 31.14 18.72 30.96 18.72 30.78C18.1606 30.1297 17.8002 29.332 17.682 28.4824C17.5638 27.6327 17.6928 26.767 18.0535 25.9887C18.4141 25.2103 18.9913 24.5523 19.716 24.0933C20.4407 23.6342 21.2822 23.3935 22.14 23.4H25.2C27.1096 23.4 28.9409 22.6414 30.2912 21.2912C31.6414 19.9409 32.4 18.1096 32.4 16.2C32.4 9.18 25.92 3.6 18 3.6ZM8.1 14.4C8.45457 14.4 8.80567 14.4698 9.13325 14.6055C9.46082 14.7412 9.75847 14.9401 10.0092 15.1908C10.2599 15.4415 10.4588 15.7392 10.5945 16.0668C10.7302 16.3943 10.8 16.7454 10.8 17.1C10.8 17.4546 10.7302 17.8057 10.5945 18.1332C10.4588 18.4608 10.2599 18.7585 10.0092 19.0092C9.75847 19.2599 9.46082 19.4588 9.13325 19.5945C8.80567 19.7302 8.45457 19.8 8.1 19.8C7.74543 19.8 7.39433 19.7302 7.06675 19.5945C6.73918 19.4588 6.44153 19.2599 6.19081 19.0092C5.94009 18.7585 5.74121 18.4608 5.60553 18.1332C5.46984 17.8057 5.4 17.4546 5.4 17.1C5.4 16.7454 5.46984 16.3943 5.60553 16.0668C5.74121 15.7392 5.94009 15.4415 6.19081 15.1908C6.44153 14.9401 6.73918 14.7412 7.06675 14.6055C7.39433 14.4698 7.74543 14.4 8.1 14.4ZM13.5 7.2C14.2107 7.21725 14.8874 7.50726 15.3901 8.00991C15.8927 8.51257 16.1827 9.18935 16.2 9.9C16.2 10.6161 15.9155 11.3028 15.4092 11.8092C14.9028 12.3155 14.2161 12.6 13.5 12.6C12.7839 12.6 12.0972 12.3155 11.5908 11.8092C11.0845 11.3028 10.8 10.6161 10.8 9.9C10.8173 9.18935 11.1073 8.51257 11.6099 8.00991C12.1126 7.50726 12.7893 7.21725 13.5 7.2ZM22.5 7.2C23.2107 7.21725 23.8874 7.50726 24.3901 8.00991C24.8927 8.51257 25.1827 9.18935 25.2 9.9C25.2 10.6161 24.9155 11.3028 24.4092 11.8092C23.9028 12.3155 23.2161 12.6 22.5 12.6C21.7839 12.6 21.0972 12.3155 20.5908 11.8092C20.0845 11.3028 19.8 10.6161 19.8 9.9C19.8173 9.18935 20.1073 8.51257 20.6099 8.00991C21.1126 7.50726 21.7893 7.21725 22.5 7.2ZM27.9 14.4C28.434 14.4 28.956 14.5584 29.4 14.855C29.8441 15.1517 30.1901 15.5734 30.3945 16.0668C30.5988 16.5601 30.6523 17.103 30.5481 17.6267C30.4439 18.1505 30.1868 18.6316 29.8092 19.0092C29.4316 19.3868 28.9505 19.6439 28.4267 19.7481C27.903 19.8523 27.3601 19.7988 26.8668 19.5945C26.3734 19.3901 25.9517 19.0441 25.655 18.6C25.3584 18.156 25.2 17.634 25.2 17.1C25.2173 16.3893 25.5073 15.7126 26.0099 15.2099C26.5126 14.7073 27.1893 14.4173 27.9 14.4Z"  />
</g>
<defs>
<clipPath id="clip0">
<rect width="36" height="36" fill="white"/>
</clipPath>
</defs>
</svg>
