<svg width="36" height="36" viewBox="0 0 36 36" fill="none" xmlns="http://www.w3.org/2000/svg">
<path d="M18.001 1.401C14.7178 1.401 11.5084 2.37457 8.77854 4.19861C6.04869 6.02264 3.92102 8.6152 2.66461 11.6485C1.40819 14.6817 1.07946 18.0194 1.71997 21.2395C2.36049 24.4596 3.94148 27.4174 6.26304 29.739C8.58459 32.0605 11.5424 33.6415 14.7625 34.282C17.9826 34.9226 21.3203 34.5938 24.3536 33.3374C27.3868 32.081 29.9794 29.9533 31.8034 27.2235C33.6274 24.4936 34.601 21.2842 34.601 18.001H31.281C31.2895 21.0833 30.2285 24.0731 28.2788 26.4605C26.3292 28.8478 23.6117 30.4849 20.5898 31.0925C17.568 31.7 14.429 31.2405 11.7081 29.7922C8.98729 28.3438 6.85314 25.9965 5.66969 23.1504C4.48623 20.3044 4.32676 17.1359 5.21848 14.1854C6.1102 11.2349 7.99788 8.68509 10.5596 6.9709C13.1212 5.25672 16.1983 4.48431 19.2658 4.7854C22.3334 5.0865 25.2015 6.44245 27.381 8.622L22.981 13.022H34.601V1.401L29.719 6.28C28.1844 4.73369 26.3589 3.50646 24.3478 2.66908C22.3366 1.83169 20.1795 1.40072 18.001 1.401V1.401Z"  />
</svg>
