<svg width="36" height="36" viewBox="0 0 36 36" fill="none" xmlns="http://www.w3.org/2000/svg">
<path d="M18.0006 34.6012C13.598 34.6012 9.37641 32.852 6.26331 29.7389C3.1502 26.6258 1.401 22.4032 1.401 18.0006C1.401 13.598 3.1502 9.37644 6.26331 6.26334C9.37641 3.15023 13.598 1.40103 18.0006 1.40103C20.18 1.39673 22.3391 1.82612 24.3512 2.66373C26.3632 3.50134 28.1888 4.73035 29.7213 6.27994L34.6002 1.40103V13.0182H22.983L27.3834 8.61783C25.5428 6.77751 23.2013 5.51884 20.651 4.99869C18.1007 4.47854 15.454 4.72052 13.0397 5.69303C10.6253 6.66553 8.54965 8.32574 7.0719 10.4684C5.59415 12.6111 4.77929 15.1415 4.72815 17.7438C4.67701 20.3461 5.39236 22.9061 6.78479 25.1051C8.17722 27.3042 10.1849 29.0454 12.5592 30.112C14.9335 31.1786 17.5695 31.5237 20.1383 31.1042C22.7071 30.6846 25.0959 29.5182 27.0074 27.7516V31.9391C24.3263 33.6793 21.197 34.6042 18.0006 34.6012Z"  />
<path d="M35 17H30V27H35V17Z"  />
<path d="M35 29H30V34H35V29Z"  />
</svg>
