<svg xmlns="http://www.w3.org/2000/svg" width="280" height="250" viewBox="0 0 280 250"><defs><style>.a{opacity:0.3;}.b,.d,.f{fill:none;}.b,.c,.d{stroke:#000;stroke-width:3px;}.b,.c{fill-rule:evenodd;}.c{fill:#fefefe;}.e{fill:#fe4141;}.g{fill:#fdfdfd;}</style></defs><g transform="translate(-480 -130)"><g class="a" transform="translate(420.212 -90.43)"><g transform="translate(101.5 239.5)"><path class="b" d="M132.7,10.407c0-4.916-3.41-8.907-7.61-8.907H11.236c-4.2,0-7.61,3.991-7.61,8.907L-3.5,106.6c0,4.916,3.41,8.907,7.61,8.907H117.963c4.2,0,7.61-3.991,7.61-8.907Z" transform="translate(25.589 -1.5)"/><g transform="translate(0 0)"><path class="c" d="M132.7,10.407c0-4.916-3.41-8.907-7.61-8.907h-111c-4.2,0-7.61,3.991-7.61,8.907L-3.5,106.6c0,4.916,3.41,8.907,7.61,8.907H116.538c4.2,0,9.036-5.416,9.036-10.332Z" transform="translate(3.5 -1.5)"/></g><path class="c" d="M34.032,4.076a2.412,2.412,0,0,0-2.2-2.576H-8.414a2.412,2.412,0,0,0-2.2,2.576L-13.5,31.893a2.412,2.412,0,0,0,2.2,2.576h41.07a2.412,2.412,0,0,0,2.2-2.576Z" transform="translate(81.503 64.576)"/><path class="d" d="M.4,0H65.749L78.23,17.963c1.658,2.382.772,5.506-2.926,7.566s-7.758,4.083-12.056,6.232c-3.9,1.95-8.051,3.3-11.667,3.249,0,0-26.495.506-51.179.877-7.918-.11-8.429.108-9.264-2.32s4.448-4,11.329-6.13c3.12-.968,8.565-2.9,11.294-3.989s2.341-3.961.925-5.484C14.677,17.942.4,0,.4,0Z" transform="translate(48.962 114.046)"/></g></g><circle class="e" cx="49.5" cy="49.5" r="49.5" transform="translate(647 201)"/><rect class="f" width="280" height="250" transform="translate(480 130)"/><path class="g" d="M22.318,2A20.318,20.318,0,1,0,42.637,22.318H38.573A16.3,16.3,0,1,1,33.8,10.838l-5.385,5.385H42.637V2L36.664,7.972A20.2,20.2,0,0,0,22.318,2Z" transform="translate(674.682 228.682)"/></g></svg>