<svg width="36" height="36" viewBox="0 0 36 36" fill="none" xmlns="http://www.w3.org/2000/svg">
<path d="M4 0V4H8V6.688C7.99984 8.00118 8.25854 9.30151 8.76129 10.5146C9.26405 11.7278 10.001 12.8299 10.93 13.758L15.172 18L10.93 22.242C10.001 23.1701 9.26405 24.2722 8.76129 25.4854C8.25854 26.6985 7.99984 27.9988 8 29.312V32H4V36H32V32H28V29.312C27.9994 26.6601 26.9455 24.1169 25.07 22.242L20.828 18L25.07 13.758C26.9455 11.8831 27.9994 9.33995 28 6.688V4H32V0H4ZM12 4H24V6.688C23.9997 7.86634 23.6519 9.01841 23 10H13C12.3473 9.01877 11.9994 7.86646 12 6.688V4ZM18 20.828L22.242 25.07C23.3673 26.195 23.9997 27.7208 24 29.312V32H12V29.312C11.9997 28.5247 12.1548 27.745 12.4565 27.0177C12.7581 26.2905 13.2004 25.6299 13.758 25.074L18 20.828Z"  />
</svg>
