<svg width="36" height="36" viewBox="0 0 36 36" fill="none" xmlns="http://www.w3.org/2000/svg">
<path d="M13.464 1.08299C16.7476 1.08299 19.8968 2.38742 22.2187 4.7093C24.5406 7.03119 25.845 10.1803 25.845 13.464C25.9275 16.0885 25.0545 18.6538 23.388 20.683L34.417 31.56L31.56 34.417L20.749 23.388C18.6881 25.0429 16.1072 25.9135 13.465 25.845C11.8391 25.8451 10.2291 25.5249 8.72695 24.9027C7.2248 24.2806 5.85989 23.3687 4.71016 22.219C2.38818 19.8972 1.08363 16.7481 1.0835 13.4645C1.08336 10.1808 2.38766 7.03164 4.70945 4.70966C7.03125 2.38768 10.1804 1.08313 13.464 1.08299V1.08299ZM13.464 4.89299C11.7686 4.89299 10.1113 5.39573 8.70165 6.33764C7.29199 7.27954 6.1933 8.6183 5.5445 10.1846C4.89571 11.751 4.72595 13.4745 5.0567 15.1373C5.38746 16.8001 6.20386 18.3275 7.40268 19.5263C8.60149 20.7251 10.1289 21.5415 11.7917 21.8723C13.4545 22.203 15.178 22.0333 16.7444 21.3845C18.3107 20.7357 19.6495 19.637 20.5914 18.2273C21.5333 16.8177 22.036 15.1604 22.036 13.465C22.0408 12.338 21.8223 11.2212 21.3932 10.179C20.9641 9.13685 20.3329 8.18999 19.5359 7.39305C18.739 6.59612 17.7921 5.96489 16.75 5.5358C15.7078 5.1067 14.591 4.88823 13.464 4.89299V4.89299Z"  />
</svg>
