<svg width="36" height="36" viewBox="0 0 36 36" fill="none" xmlns="http://www.w3.org/2000/svg">
<g clip-path="url(#clip0)">
<path d="M17.977 4C11.4626 4.00193 5.13543 6.17984 0 10.188C6.235 18.016 11.62 24.684 17.977 32.621C24.289 24.761 30.72 16.748 36 10.188C30.8473 6.17915 24.5055 4.00178 17.977 4V4ZM17.977 7.094C22.7305 7.10316 27.3907 8.4139 31.452 10.884L26.486 17.041C23.8847 15.5902 20.9556 14.8286 17.977 14.8286C14.9984 14.8286 12.0693 15.5902 9.468 17.041L4.468 10.868C8.54432 8.40563 13.2147 7.10087 17.977 7.094V7.094Z"  />
</g>
<defs>
<clipPath id="clip0">
<rect width="36" height="36" fill="white"/>
</clipPath>
</defs>
</svg>
