<svg width="36" height="36" viewBox="0 0 36 36" fill="none" xmlns="http://www.w3.org/2000/svg">
<g clip-path="url(#clip0)">
<path d="M17.977 4C11.4626 4.00193 5.13543 6.17984 0 10.188C6.235 18.016 11.62 24.684 17.977 32.621C24.289 24.761 30.72 16.748 36 10.188C30.8473 6.17915 24.5055 4.00178 17.977 4V4ZM17.977 7.094C22.7305 7.10316 27.3907 8.4139 31.452 10.884L23.562 20.723C21.8161 19.897 19.9085 19.4691 17.977 19.47C16.0474 19.4714 14.1414 19.8939 12.392 20.708L4.471 10.869C8.54634 8.4068 13.2156 7.10172 17.977 7.094V7.094Z"  />
</g>
<defs>
<clipPath id="clip0">
<rect width="36" height="36" fill="white"/>
</clipPath>
</defs>
</svg>
