<svg width="36" height="36" viewBox="0 0 36 36" fill="none" xmlns="http://www.w3.org/2000/svg">
<path d="M31.31 23.794C31.31 23.794 27.397 28.04 27.397 30.642C27.397 31.1559 27.4982 31.6647 27.6948 32.1394C27.8915 32.6142 28.1797 33.0456 28.5431 33.4089C28.9064 33.7723 29.3378 34.0605 29.8125 34.2571C30.2873 34.4538 30.7961 34.555 31.31 34.555C31.8238 34.555 32.3327 34.4538 32.8074 34.2571C33.2822 34.0605 33.7135 33.7723 34.0769 33.4089C34.4403 33.0456 34.7285 32.6142 34.9251 32.1394C35.1218 31.6647 35.223 31.1559 35.223 30.642C35.223 28.042 31.31 23.794 31.31 23.794ZM4.32899 20.859L13.703 11.487L23.075 20.859H4.32899ZM26.538 18.785L9.04399 1.29401L6.28598 4.05301L10.942 8.70901L0.865985 18.785C0.591694 19.0563 0.373938 19.3793 0.225322 19.7353C0.0767062 20.0913 0.000183105 20.4732 0.000183105 20.859C0.000183105 21.2448 0.0767062 21.6267 0.225322 21.9827C0.373938 22.3387 0.591694 22.6617 0.865985 22.933L11.627 33.694C11.8991 33.9669 12.2223 34.1833 12.5782 34.331C12.9341 34.4787 13.3157 34.5548 13.701 34.5548C14.0863 34.5548 14.4679 34.4787 14.8237 34.331C15.1796 34.1833 15.5029 33.9669 15.775 33.694L26.536 22.933C26.8103 22.6617 27.028 22.3387 27.1766 21.9827C27.3253 21.6267 27.4018 21.2448 27.4018 20.859C27.4018 20.4732 27.3253 20.0913 27.1766 19.7353C27.028 19.3793 26.8103 19.0563 26.536 18.785H26.538Z"  />
</svg>
