<svg width="36" height="36" viewBox="0 0 36 36" fill="none" xmlns="http://www.w3.org/2000/svg">
<g clip-path="url(#clip0)">
<path d="M14.21 25.846L25.579 18.458L14.21 10.158V25.846ZM18 0C7.87 0 0 8.591 0 18.462C0 28.333 7.87 36 18 36C28.13 36 36 28.332 36 18.462C36 8.592 28.129 0 18 0ZM18 32.308C9.907 32.308 3.789 26.347 3.789 18.458C3.789 10.569 9.907 3.692 18 3.692C26.093 3.692 32.21 10.576 32.21 18.458C32.21 26.34 26.093 32.308 18 32.308Z"  />
</g>
<defs>
<clipPath id="clip0">
<rect width="36" height="36" fill="white"/>
</clipPath>
</defs>
</svg>
