<svg width="36" height="36" viewBox="0 0 36 36" fill="none" xmlns="http://www.w3.org/2000/svg">
<path d="M6 0L0 8H4C4.12916 10.1503 4.96235 12.1983 6.371 13.828C7.371 15.228 8 16.179 8 17.328C8 18.477 7.371 19.428 6.371 20.828C4.96079 22.4599 4.12751 24.511 4 26.664C4.12839 28.8168 4.96157 30.8676 6.371 32.5C7.371 33.9 8 34.847 8 36H12C11.8708 33.8498 11.0376 31.8018 9.629 30.172C8.629 28.772 8 27.817 8 26.664C8 25.511 8.629 24.564 9.629 23.164C11.0384 21.5332 11.8716 19.4836 12 17.332C11.8717 15.1803 11.0385 13.1308 9.629 11.5C8.629 10.1 8 9.153 8 8H12L6 0ZM12 8H16C16.1292 10.1503 16.9624 12.1983 18.371 13.828C19.371 15.228 20 16.179 20 17.328C20 18.477 19.371 19.428 18.371 20.828C16.9608 22.4599 16.1275 24.511 16 26.664C16.1284 28.8168 16.9616 30.8676 18.371 32.5C19.371 33.9 20 34.847 20 36H24C23.8708 33.8498 23.0376 31.8018 21.629 30.172C20.629 28.772 20 27.817 20 26.664C20 25.511 20.629 24.564 21.629 23.164C23.0384 21.5332 23.8716 19.4836 24 17.332C23.8717 15.1803 23.0385 13.1308 21.629 11.5C20.629 10.1 20 9.153 20 8H24L18 0L12 8ZM24 8H28C28.1292 10.1503 28.9623 12.1983 30.371 13.828C31.371 15.228 32 16.179 32 17.328C32 18.477 31.371 19.428 30.371 20.828C28.9608 22.4599 28.1275 24.511 28 26.664C28.1284 28.8168 28.9616 30.8676 30.371 32.5C31.371 33.9 32 34.847 32 36H36C35.8708 33.8498 35.0376 31.8018 33.629 30.172C32.629 28.772 32 27.817 32 26.664C32 25.511 32.629 24.564 33.629 23.164C35.0384 21.5332 35.8716 19.4836 36 17.332C35.8717 15.1803 35.0385 13.1308 33.629 11.5C32.629 10.1 32 9.153 32 8H36L30 0L24 8Z"  />
</svg>
