<svg width="36" height="36" viewBox="0 0 36 36" fill="none" xmlns="http://www.w3.org/2000/svg">
<path d="M18 31.6C15.3102 31.6 12.6807 30.8024 10.4442 29.308C8.20773 27.8136 6.46458 25.6896 5.43523 23.2045C4.40588 20.7194 4.13655 17.9849 4.66131 15.3468C5.18607 12.7086 6.48135 10.2853 8.38334 8.38335C10.2853 6.48135 12.7086 5.18608 15.3468 4.66132C17.9849 4.13656 20.7194 4.40589 23.2045 5.43524C25.6896 6.46459 27.8136 8.20774 29.308 10.4442C30.8024 12.6808 31.6 15.3102 31.6 18C31.6 19.786 31.2482 21.5545 30.5648 23.2045C29.8813 24.8545 28.8795 26.3538 27.6166 27.6167C26.3538 28.8795 24.8545 29.8813 23.2045 30.5648C21.5545 31.2482 19.786 31.6 18 31.6ZM18 1C14.6377 1 11.3509 1.99703 8.5553 3.86502C5.75966 5.733 3.58073 8.38804 2.29404 11.4944C1.00735 14.6007 0.670694 18.0189 1.32664 21.3165C1.98259 24.6142 3.60168 27.6433 5.97918 30.0208C8.35667 32.3983 11.3858 34.0174 14.6835 34.6734C17.9811 35.3293 21.3993 34.9926 24.5056 33.706C27.612 32.4193 30.267 30.2403 32.135 27.4447C34.003 24.6491 35 21.3623 35 18C35 13.4913 33.2089 9.1673 30.0208 5.97918C26.8327 2.79107 22.5087 1 18 1V1ZM25.208 10.792C24.2646 9.84074 23.1416 9.08639 21.9042 8.57276C20.6668 8.05913 19.3397 7.79646 18 7.8V18L10.792 25.208C12.7091 27.0936 15.2935 28.1454 17.9825 28.1343C20.6715 28.1232 23.2472 27.05 25.1486 25.1486C27.05 23.2472 28.1232 20.6715 28.1343 17.9825C28.1454 15.2936 27.0936 12.7091 25.208 10.792Z"  />
</svg>
