<svg width="36" height="36" viewBox="0 0 36 36" fill="none" xmlns="http://www.w3.org/2000/svg">
<path d="M16.429 0.712997V17.857H19.858V0.712997H16.429ZM13 1.5C9.09264 2.72875 5.75433 5.31586 3.58939 8.79299C1.42445 12.2701 0.575975 16.4074 1.19755 20.456C1.81913 24.5046 3.86968 28.1968 6.978 30.8644C10.0863 33.5319 14.047 34.9984 18.143 34.9984C22.239 34.9984 26.1997 33.5319 29.308 30.8644C32.4163 28.1968 34.4669 24.5046 35.0885 20.456C35.71 16.4074 34.8616 12.2701 32.6966 8.79299C30.5317 5.31586 27.1934 2.72875 23.286 1.5V5.15C26.2366 6.34353 28.6802 8.52612 30.198 11.3237C31.7159 14.1213 32.2134 17.3597 31.6055 20.4839C30.9975 23.6082 29.3219 26.4237 26.8657 28.4479C24.4096 30.4722 21.3258 31.5792 18.143 31.5792C14.9602 31.5792 11.8764 30.4722 9.42029 28.4479C6.96413 26.4237 5.28849 23.6082 4.68053 20.4839C4.07257 17.3597 4.57015 14.1213 6.08799 11.3237C7.60583 8.52612 10.0494 6.34353 13 5.15V1.5Z"  />
</svg>
