<svg width="36" height="36" viewBox="0 0 36 36" fill="none" xmlns="http://www.w3.org/2000/svg">
<path d="M8.182 10C6.03625 9.97627 3.96891 10.8057 2.43458 12.3059C0.90024 13.8061 0.0245279 15.8543 0 18C0.0245279 20.1457 0.90024 22.1939 2.43458 23.6941C3.96891 25.1943 6.03625 26.0237 8.182 26H14.727V22.8H8.182C7.55166 22.8 6.92748 22.6759 6.34512 22.4346C5.76276 22.1934 5.23361 21.8398 4.78789 21.3941C4.34217 20.9484 3.9886 20.4193 3.74738 19.8369C3.50616 19.2545 3.382 18.6304 3.382 18C3.382 17.3697 3.50616 16.7455 3.74738 16.1631C3.9886 15.5808 4.34217 15.0516 4.78789 14.6059C5.23361 14.1602 5.76276 13.8066 6.34512 13.5654C6.92748 13.3242 7.55166 13.2 8.182 13.2H14.727V10H8.182ZM21.273 10V13.2H27.818C29.091 13.2 30.3119 13.7057 31.2121 14.6059C32.1123 15.5061 32.618 16.727 32.618 18C32.618 19.273 32.1123 20.4939 31.2121 21.3941C30.3119 22.2943 29.091 22.8 27.818 22.8H21.273V26H27.818C29.9638 26.0237 32.0311 25.1943 33.5654 23.6941C35.0998 22.1939 35.9755 20.1457 36 18C35.9755 15.8543 35.0998 13.8061 33.5654 12.3059C32.0311 10.8057 29.9638 9.97627 27.818 10H21.273Z"  />
</svg>
