<svg width="36" height="36" viewBox="0 0 36 36" fill="none" xmlns="http://www.w3.org/2000/svg">
<path d="M20.886 9.571C24.2033 9.571 27.3848 10.8888 29.7305 13.2345C32.0762 15.5802 33.394 18.7617 33.394 22.079C33.394 25.3963 32.0762 28.5778 29.7305 30.9235C27.3848 33.2692 24.2033 34.587 20.886 34.587H14.151V30.739H20.886C23.1827 30.739 25.3852 29.8267 27.0092 28.2027C28.6332 26.5787 29.5455 24.3761 29.5455 22.0795C29.5455 19.7829 28.6332 17.5803 27.0092 15.9563C25.3852 14.3323 23.1827 13.42 20.886 13.42H9.97501L15.905 19.366L13.192 22.079L2.60501 11.496L13.189 0.912003L15.922 3.625L9.97501 9.571H20.886ZM6.45401 30.739H10.305V34.588H6.45401V30.739Z"  />
</svg>
