<svg width="36" height="36" viewBox="0 0 36 36" fill="none" xmlns="http://www.w3.org/2000/svg">
<path d="M14.281 9.571C17.5983 9.571 20.7798 10.8888 23.1255 13.2345C25.4712 15.5802 26.789 18.7617 26.789 22.079C26.789 25.3963 25.4712 28.5778 23.1255 30.9235C20.7798 33.2692 17.5983 34.587 14.281 34.587H11.546V30.739H14.281C16.5776 30.739 18.7802 29.8267 20.4042 28.2027C22.0282 26.5787 22.9405 24.3761 22.9405 22.0795C22.9405 19.7829 22.0282 17.5803 20.4042 15.9563C18.7802 14.3323 16.5776 13.42 14.281 13.42H7.37L13.3 19.366L10.587 22.079L0 11.496L10.584 0.912003L13.317 3.625L7.37 9.571H14.281ZM3.849 30.739H7.7V34.588H3.849V30.739Z"  />
<path d="M23.2836 34.5865V34.0934C24.7826 32.9206 26.0647 31.4936 27.0717 29.8785C28.5367 29.1704 29.7714 28.0625 30.6332 26.6822C31.495 25.302 31.9488 23.7059 31.9418 22.0787C31.9417 20.6644 31.5986 19.2717 30.9418 18.0192C30.3066 16.8157 29.396 15.7789 28.2846 14.9938C27.4508 12.9881 26.2235 11.1705 24.6742 9.64807C27.8505 10.0045 30.7693 11.5632 32.8324 14.0045C34.8955 16.4458 35.9462 19.5847 35.768 22.776C35.5897 25.9673 34.1965 28.9693 31.8744 31.1656C29.5523 33.362 26.4769 34.5851 23.2806 34.5856L23.2836 34.5865Z"  />
</svg>
