<svg width="36" height="36" viewBox="0 0 36 36" fill="none" xmlns="http://www.w3.org/2000/svg">
<path d="M18 1.474C13.6186 1.47903 9.41804 3.22177 6.31991 6.31991C3.22177 9.41804 1.47903 13.6186 1.474 18H5.147C5.13911 15.3464 5.95507 12.7557 7.48226 10.5856C9.00946 8.41544 11.1726 6.77283 13.6731 5.88446C16.1736 4.99608 18.8882 4.90573 21.4423 5.62589C23.9963 6.34605 26.2639 7.84121 27.932 9.905L23.51 14.327H34.527V3.31L30.549 7.288C29.0046 5.46616 27.0821 4.00239 24.9151 2.99839C22.748 1.99438 20.3883 1.4742 18 1.474V1.474ZM30.854 18C30.8606 20.6524 30.0441 23.2416 28.5172 25.4104C26.9902 27.5792 24.828 29.2209 22.3287 30.109C19.8294 30.9972 17.1161 31.0881 14.563 30.3691C12.0098 29.6502 9.74262 28.1568 8.074 26.095L12.492 21.674H1.474V32.69L5.451 28.713C7.63933 31.2895 10.5662 33.1317 13.8357 33.9903C17.1052 34.849 20.5596 34.6828 23.7315 33.5141C26.9035 32.3454 29.6399 30.2306 31.5707 27.4559C33.5015 24.6812 34.5335 21.3804 34.527 18H30.854Z"  />
</svg>
