<svg width="36" height="36" viewBox="0 0 36 36" fill="none" xmlns="http://www.w3.org/2000/svg">
<path d="M7.43699 2.791V17.205C6.41331 17.5697 5.52649 18.2403 4.89668 19.1259C4.26687 20.0115 3.92451 21.0693 3.91599 22.156V34.198H32.083V22.156C32.0745 21.0693 31.7321 20.0115 31.1023 19.1259C30.4725 18.2403 29.5857 17.5697 28.562 17.205V2.791H7.43699ZM10.958 6.312H25.041V16.875H10.958V6.312ZM12.718 8.072V11.591H16.239V8.072H12.718ZM19.76 8.072V11.591H23.281V8.072H19.76ZM9.19699 20.391H26.797C27.0291 20.3874 27.2596 20.4304 27.4748 20.5175C27.69 20.6047 27.8855 20.7342 28.0496 20.8984C28.2138 21.0625 28.3433 21.258 28.4304 21.4732C28.5176 21.6884 28.5606 21.9189 28.557 22.151V34.198H7.43699V22.156C7.43266 21.9235 7.47519 21.6924 7.56205 21.4766C7.6489 21.2609 7.7783 21.0648 7.94253 20.9001C8.10676 20.7354 8.30247 20.6055 8.51799 20.518C8.73351 20.4305 8.96442 20.3873 9.19699 20.391ZM17.997 23.912C17.6489 23.912 17.3086 24.0152 17.0192 24.2086C16.7298 24.402 16.5042 24.6769 16.371 24.9985C16.2377 25.3201 16.2029 25.674 16.2708 26.0154C16.3387 26.3568 16.5063 26.6704 16.7525 26.9165C16.9986 27.1626 17.3122 27.3303 17.6536 27.3982C17.995 27.4661 18.3489 27.4312 18.6705 27.298C18.9921 27.1648 19.267 26.9392 19.4604 26.6498C19.6538 26.3604 19.757 26.0201 19.757 25.672C19.7559 25.2064 19.5704 24.7602 19.2411 24.4311C18.9118 24.102 18.4656 23.9168 18 23.916L17.997 23.912Z"  />
</svg>
