<svg width="36" height="36" viewBox="0 0 36 36" fill="none" xmlns="http://www.w3.org/2000/svg">
<g clip-path="url(#clip0)">
<path d="M16.2 23.4H19.8V27H16.2V23.4ZM16.2 9H19.8V19.8H16.2V9V9ZM18 0C14.4399 0 10.9598 1.05568 7.99974 3.03355C5.03966 5.01141 2.73255 7.82263 1.37018 11.1117C0.00779903 14.4008 -0.348661 18.02 0.345873 21.5116C1.04041 25.0033 2.75474 28.2106 5.27209 30.7279C7.78943 33.2453 10.9967 34.9596 14.4884 35.6541C17.98 36.3487 21.5992 35.9922 24.8883 34.6298C28.1774 33.2675 30.9886 30.9603 32.9665 28.0003C34.9443 25.0402 36 21.5601 36 18C35.9952 13.2276 34.0973 8.65196 30.7227 5.27734C27.348 1.90272 22.7724 0.00476529 18 0V0ZM18 32.4C15.152 32.4 12.3679 31.5555 9.9998 29.9732C7.63173 28.3909 5.78604 26.1419 4.69614 23.5106C3.60624 20.8794 3.32107 17.984 3.8767 15.1907C4.43233 12.3974 5.80379 9.83154 7.81767 7.81766C9.83155 5.80379 12.3974 4.43232 15.1907 3.87669C17.984 3.32106 20.8794 3.60623 23.5106 4.69613C26.1419 5.78604 28.3909 7.63172 29.9732 9.99979C31.5555 12.3679 32.4 15.1519 32.4 18C32.4 21.8191 30.8829 25.4818 28.1823 28.1823C25.4818 30.8829 21.8191 32.4 18 32.4Z"  />
</g>
<defs>
<clipPath id="clip0">
<rect width="36" height="36" fill="white"/>
</clipPath>
</defs>
</svg>
