<svg width="36" height="36" viewBox="0 0 36 36" fill="none" xmlns="http://www.w3.org/2000/svg">
<path d="M0 13.111L3.268 16.379C7.16869 12.4788 12.4589 10.2876 17.975 10.2876C23.4911 10.2876 28.7813 12.4788 32.682 16.379L35.95 13.111C31.1807 8.34754 24.7157 5.67194 17.975 5.67194C11.2343 5.67194 4.76928 8.34754 0 13.111V13.111ZM13.073 26.184L17.973 31.084L22.873 26.184C22.2299 25.5399 21.4661 25.0288 20.6253 24.6802C19.7845 24.3315 18.8832 24.152 17.973 24.152C17.0628 24.152 16.1615 24.3315 15.3207 24.6802C14.4799 25.0288 13.7161 25.5399 13.073 26.184V26.184ZM6.536 19.647L9.8 22.915C11.9675 20.7491 14.9063 19.5324 17.9705 19.5324C21.0347 19.5324 23.9735 20.7491 26.141 22.915L29.409 19.647C26.3724 16.6203 22.2599 14.9207 17.9725 14.9207C13.6851 14.9207 9.57256 16.6203 6.536 19.647V19.647Z"  />
</svg>
